<?xml version="1.0" encoding="UTF-8"?>
<svg id="Layer_1" data-name="Layer 1" xmlns="http://www.w3.org/2000/svg" viewBox="0 0 980 980">
  <defs>
    <style>
      .cls-1 {
        fill: #b9612e;
      }

      .cls-2 {
        fill: #a6897f;
      }

      .cls-3 {
        fill: #b56233;
      }

      .cls-4 {
        fill: #81513a;
      }

      .cls-5 {
        fill: #929caf;
      }

      .cls-6 {
        fill: #2c2b31;
      }

      .cls-7 {
        fill: #783c25;
      }

      .cls-8 {
        fill: #9fa3a2;
      }

      .cls-9 {
        fill: #533737;
      }

      .cls-10 {
        fill: #5f5d6e;
      }

      .cls-11 {
        fill: #c4cfdd;
      }

      .cls-12 {
        fill: #61423e;
      }

      .cls-13 {
        fill: #e2ca9f;
      }

      .cls-14 {
        fill: #9f633d;
      }

      .cls-15 {
        fill: #1c121b;
      }

      .cls-16 {
        fill: #c35a18;
      }

      .cls-17 {
        fill: #6c4631;
      }

      .cls-18 {
        fill: #232d3a;
      }

      .cls-19 {
        fill: #6c3c29;
      }

      .cls-20 {
        fill: #4d1b14;
      }

      .cls-21 {
        fill: #9b897b;
      }

      .cls-22 {
        fill: #c99460;
      }

      .cls-23 {
        fill: #866e71;
      }

      .cls-24 {
        fill: #393945;
      }

      .cls-25 {
        fill: #6e6660;
      }

      .cls-26 {
        fill: #29363f;
      }

      .cls-27 {
        fill: #a48f7b;
      }

      .cls-28 {
        fill: #694c3f;
      }

      .cls-29 {
        fill: #5f4f43;
      }

      .cls-30 {
        fill: #858185;
      }

      .cls-31 {
        fill: #646470;
      }

      .cls-32 {
        fill: #7c5c4c;
      }

      .cls-33 {
        fill: #f2900c;
      }

      .cls-34 {
        fill: #6a4431;
      }

      .cls-35 {
        fill: #373e54;
      }

      .cls-36 {
        fill: #141310;
      }

      .cls-37 {
        fill: #965639;
      }

      .cls-38 {
        fill: #87655d;
      }

      .cls-39 {
        fill: #c8d1de;
      }

      .cls-40 {
        fill: #94694d;
      }

      .cls-41 {
        fill: #9f5333;
      }

      .cls-42 {
        fill: #646873;
      }

      .cls-43 {
        fill: #534e5d;
      }

      .cls-44 {
        fill: #826458;
      }

      .cls-45 {
        fill: #684b45;
      }

      .cls-46 {
        fill: #5d3324;
      }

      .cls-47 {
        fill: #a47f6c;
      }

      .cls-48 {
        fill: #3f3b3d;
      }

      .cls-49 {
        fill: #da6715;
      }

      .cls-50 {
        fill: #804731;
      }

      .cls-51 {
        fill: #737275;
      }

      .cls-52 {
        fill: #f7e52e;
      }

      .cls-53 {
        fill: #583933;
      }

      .cls-54 {
        fill: #dbdee8;
      }

      .cls-55 {
        fill: #271b23;
      }

      .cls-56 {
        fill: #a2724f;
      }

      .cls-57 {
        fill: #4b2009;
      }

      .cls-58 {
        fill: #523835;
      }

      .cls-59 {
        fill: #f0971d;
      }

      .cls-60 {
        fill: #8091b2;
      }

      .cls-61 {
        fill: #6c4a3f;
      }

      .cls-62 {
        fill: #f6b814;
      }

      .cls-63 {
        fill: #00000000;
      }

      .cls-64 {
        fill: #734d3a;
      }

      .cls-65 {
        fill: #766473;
      }

      .cls-66 {
        fill: #130f12;
      }

      .cls-67 {
        fill: #33282a;
      }

      .cls-68 {
        fill: #090a0f;
      }

      .cls-69 {
        fill: #464d6a;
      }

      .cls-70 {
        fill: #956a53;
      }

      .cls-71 {
        fill: #341e23;
      }

      .cls-72 {
        fill: #b85029;
      }

      .cls-73 {
        fill: #934e2f;
      }

      .cls-74 {
        fill: #7190d2;
      }

      .cls-75 {
        fill: #eeab28;
      }

      .cls-76 {
        fill: #6e5446;
      }

      .cls-77 {
        fill: #93a5c0;
      }

      .cls-78 {
        fill: #8d6249;
      }

      .cls-79 {
        fill: #14151a;
      }

      .cls-80 {
        fill: #68656e;
      }

      .cls-81 {
        fill: #fefffe;
      }

      .cls-82 {
        fill: #735649;
      }

      .cls-83 {
        fill: #89716b;
      }

      .cls-84 {
        fill: #f6f76a;
      }

      .cls-85 {
        fill: #e6a24e;
      }

      .cls-86 {
        fill: #725f8d;
      }

      .cls-87 {
        fill: #b0b0c1;
      }

      .cls-88 {
        fill: #686871;
      }

      .cls-89 {
        fill: #311d26;
      }

      .cls-90 {
        fill: #8f7161;
      }

      .cls-91 {
        fill: #683d35;
      }

      .cls-92 {
        fill: #584e52;
      }

      .cls-93 {
        fill: #bf4410;
      }

      .cls-94 {
        fill: #292932;
      }

      .cls-95 {
        fill: #464e56;
      }

      .cls-96 {
        fill: #694232;
      }

      .cls-97 {
        fill: #e0ab6a;
      }

      .cls-98 {
        fill: #fdfefd;
      }

      .cls-99 {
        fill: #70525d;
      }

      .cls-100 {
        fill: #805f4b;
      }

      .cls-101 {
        fill: #33112d;
      }

      .cls-102 {
        fill: #8e614a;
      }

      .cls-103 {
        fill: #c3a19f;
      }

      .cls-104 {
        fill: #484d6c;
      }

      .cls-105 {
        fill: #e2cb9c;
      }

      .cls-106 {
        fill: #422418;
      }

      .cls-107 {
        fill: #22262e;
      }

      .cls-108 {
        fill: #818084;
      }

      .cls-109 {
        fill: #1d0602;
      }

      .cls-110 {
        fill: #74748a;
      }

      .cls-111 {
        fill: #886f62;
      }

      .cls-112 {
        fill: #744d41;
      }

      .cls-113 {
        fill: #7b5744;
      }

      .cls-114 {
        fill: #2e3646;
      }

      .cls-115 {
        fill: #3f4a64;
      }

      .cls-116 {
        fill: #966d56;
      }

      .cls-117 {
        fill: #c1a27f;
      }

      .cls-118 {
        fill: #453739;
      }

      .cls-119 {
        fill: #9c603c;
      }

      .cls-120 {
        fill: #3a3645;
      }

      .cls-121 {
        fill: #353239;
      }

      .cls-122 {
        fill: #fffefe;
      }

      .cls-123 {
        fill: #262124;
      }

      .cls-124 {
        fill: #f4ecbe;
      }

      .cls-125 {
        fill: #ecb56e;
      }

      .cls-126 {
        fill: #202936;
      }

      .cls-127 {
        fill: #65392d;
      }

      .cls-128 {
        fill: #87604e;
      }

      .cls-129 {
        fill: #23161f;
      }

      .cls-130 {
        fill: #554b6a;
      }

      .cls-131 {
        fill: #697480;
      }

      .cls-132 {
        fill: #584e61;
      }

      .cls-133 {
        fill: #674e46;
      }

      .cls-134 {
        fill: #6d6f73;
      }

      .cls-135 {
        fill: #bc5d27;
      }

      .cls-136 {
        fill: #6a79be;
      }

      .cls-137 {
        fill: #5e3f3c;
      }

      .cls-138 {
        fill: #7d8492;
      }

      .cls-139 {
        fill: #8a644f;
      }

      .cls-140 {
        fill: #804f3b;
      }

      .cls-141 {
        fill: #37404f;
      }

      .cls-142 {
        fill: #ba9871;
      }

      .cls-143 {
        fill: #745f5a;
      }

      .cls-144 {
        fill: #1b1c25;
      }

      .cls-145 {
        fill: #4d352f;
      }

      .cls-146 {
        fill: #d96420;
      }

      .cls-147 {
        fill: #f8f6ed;
      }

      .cls-148 {
        fill: #524954;
      }

      .cls-149 {
        fill: #6b6460;
      }

      .cls-150 {
        fill: #282225;
      }

      .cls-151 {
        fill: #08131b;
      }

      .cls-152 {
        fill: #66392b;
      }

      .cls-153 {
        fill: #3f252c;
      }

      .cls-154 {
        fill: #c8793d;
      }

      .cls-155 {
        fill: #adb0c2;
      }

      .cls-156 {
        fill: #442722;
      }

      .cls-157 {
        fill: #4b3034;
      }

      .cls-158 {
        fill: #824826;
      }

      .cls-159 {
        fill: #664535;
      }

      .cls-160 {
        fill: #201818;
      }

      .cls-161 {
        fill: #87624d;
      }

      .cls-162 {
        fill: #615d6a;
      }

      .cls-163 {
        fill: #f3ebee;
      }

      .cls-164 {
        fill: #e3721f;
      }

      .cls-165 {
        fill: #442c2e;
      }

      .cls-166 {
        fill: #fbfae7;
      }

      .cls-167 {
        fill: #41271f;
      }

      .cls-168 {
        fill: #bec7d8;
      }

      .cls-169 {
        fill: #282230;
      }

      .cls-170 {
        fill: #634031;
      }

      .cls-171 {
        fill: #2a2631;
      }

      .cls-172 {
        fill: #2f3c4b;
      }

      .cls-173 {
        fill: #908590;
      }

      .cls-174 {
        fill: #26313e;
      }

      .cls-175 {
        fill: #282223;
      }

      .cls-176 {
        fill: #292027;
      }

      .cls-177 {
        fill: #f6dc0b;
      }

      .cls-178 {
        fill: #f18c2b;
      }

      .cls-179 {
        fill: #694d49;
      }

      .cls-180 {
        fill: #2b303f;
      }

      .cls-181 {
        fill: #573d3e;
      }

      .cls-182 {
        fill: #2c161d;
      }

      .cls-183 {
        fill: #e07a2a;
      }

      .cls-184 {
        fill: #4f352e;
      }

      .cls-185 {
        fill: #67474d;
      }

      .cls-186 {
        fill: #403c46;
      }

      .cls-187 {
        fill: #5e636f;
      }

      .cls-188 {
        fill: #86878c;
      }

      .cls-189 {
        fill: #776b7f;
      }

      .cls-190 {
        fill: #674e4b;
      }

      .cls-191 {
        fill: #f0be24;
      }

      .cls-192 {
        fill: #794d41;
      }

      .cls-193 {
        fill: #9a5b38;
      }

      .cls-194 {
        fill: #3a3542;
      }

      .cls-195 {
        fill: #fefefe;
      }

      .cls-196 {
        fill: #8a4e35;
      }

      .cls-197 {
        fill: #896255;
      }

      .cls-198 {
        fill: #574442;
      }

      .cls-199 {
        fill: #9399a9;
      }

      .cls-200 {
        fill: #914727;
      }

      .cls-201 {
        fill: #7b808b;
      }

      .cls-202 {
        fill: #252224;
      }

      .cls-203 {
        fill: #b0b2c6;
      }

      .cls-204 {
        fill: #f5c270;
      }

      .cls-205 {
        fill: #353240;
      }

      .cls-206 {
        fill: #ab714d;
      }

      .cls-207 {
        fill: #443946;
      }

      .cls-208 {
        fill: #9f889f;
      }

      .cls-209 {
        fill: #f7f7f7;
      }

      .cls-210 {
        fill: #915738;
      }

      .cls-211 {
        fill: #463c40;
      }

      .cls-212 {
        fill: #fdfdfd;
      }

      .cls-213 {
        fill: #734c41;
      }

      .cls-214 {
        fill: #835943;
      }

      .cls-215 {
        fill: #100d0a;
      }

      .cls-216 {
        fill: #52372d;
      }
    </style>
  </defs>
  <rect class="cls-63" x="931" y="931" width="49" height="49"/>
  <rect class="cls-63" x="882" y="931" width="49" height="49"/>
  <rect class="cls-63" x="833" y="931" width="49" height="49"/>
  <rect class="cls-63" x="784" y="931" width="49" height="49"/>
  <rect class="cls-63" x="735" y="931" width="49" height="49"/>
  <rect class="cls-63" x="686" y="931" width="49" height="49"/>
  <rect class="cls-63" x="637" y="931" width="49" height="49"/>
  <rect class="cls-63" x="588" y="931" width="49" height="49"/>
  <rect class="cls-63" x="539" y="931" width="49" height="49"/>
  <rect class="cls-63" x="490" y="931" width="49" height="49"/>
  <rect class="cls-63" x="441" y="931" width="49" height="49"/>
  <rect class="cls-63" x="392" y="931" width="49" height="49"/>
  <rect class="cls-63" x="343" y="931" width="49" height="49"/>
  <rect class="cls-63" x="294" y="931" width="49" height="49"/>
  <rect class="cls-63" x="245" y="931" width="49" height="49"/>
  <rect class="cls-63" x="196" y="931" width="49" height="49"/>
  <rect class="cls-63" x="147" y="931" width="49" height="49"/>
  <rect class="cls-63" x="98" y="931" width="49" height="49"/>
  <rect class="cls-63" x="49" y="931" width="49" height="49"/>
  <rect class="cls-63" y="931" width="49" height="49"/>
  <rect class="cls-63" x="931" y="882" width="49" height="49"/>
  <rect class="cls-63" x="882" y="882" width="49" height="49"/>
  <rect class="cls-63" x="833" y="882" width="49" height="49"/>
  <rect class="cls-63" x="784" y="882" width="49" height="49"/>
  <rect class="cls-63" x="735" y="882" width="49" height="49"/>
  <rect class="cls-63" x="686" y="882" width="49" height="49"/>
  <rect class="cls-212" x="637" y="882" width="49" height="49"/>
  <rect class="cls-12" x="588" y="882" width="49" height="49"/>
  <rect class="cls-181" x="539" y="882" width="49" height="49"/>
  <rect class="cls-157" x="490" y="882" width="49" height="49"/>
  <rect class="cls-153" x="441" y="882" width="49" height="49"/>
  <rect class="cls-71" x="392" y="882" width="49" height="49"/>
  <rect class="cls-182" x="343" y="882" width="49" height="49"/>
  <rect class="cls-209" x="294" y="882" width="49" height="49"/>
  <rect class="cls-63" x="245" y="882" width="49" height="49"/>
  <rect class="cls-63" x="196" y="882" width="49" height="49"/>
  <rect class="cls-63" x="147" y="882" width="49" height="49"/>
  <rect class="cls-63" x="98" y="882" width="49" height="49"/>
  <rect class="cls-63" x="49" y="882" width="49" height="49"/>
  <rect class="cls-63" y="882" width="49" height="49"/>
  <rect class="cls-63" x="931" y="833" width="49" height="49"/>
  <rect class="cls-63" x="882" y="833" width="49" height="49"/>
  <rect class="cls-63" x="833" y="833" width="49" height="49"/>
  <rect class="cls-63" x="784" y="833" width="49" height="49"/>
  <rect class="cls-58" x="735" y="833" width="49" height="49"/>
  <rect class="cls-179" x="686" y="833" width="49" height="49"/>
  <rect class="cls-44" x="637" y="833" width="49" height="49"/>
  <rect class="cls-13" x="588" y="833" width="49" height="49"/>
  <rect class="cls-111" x="539" y="833" width="49" height="49"/>
  <rect class="cls-143" x="490" y="833" width="49" height="49"/>
  <rect class="cls-190" x="441" y="833" width="49" height="49"/>
  <rect class="cls-133" x="392" y="833" width="49" height="49"/>
  <rect class="cls-118" x="343" y="833" width="49" height="49"/>
  <rect class="cls-55" x="294" y="833" width="49" height="49"/>
  <rect class="cls-129" x="245" y="833" width="49" height="49"/>
  <rect class="cls-15" x="196" y="833" width="49" height="49"/>
  <rect class="cls-63" x="147" y="833" width="49" height="49"/>
  <rect class="cls-63" x="98" y="833" width="49" height="49"/>
  <rect class="cls-63" x="49" y="833" width="49" height="49"/>
  <rect class="cls-63" y="833" width="49" height="49"/>
  <rect class="cls-63" x="931" y="784" width="49" height="49"/>
  <rect class="cls-63" x="882" y="784" width="49" height="49"/>
  <rect class="cls-63" x="833" y="784" width="49" height="49"/>
  <rect class="cls-9" x="784" y="784" width="49" height="49"/>
  <rect class="cls-2" x="735" y="784" width="49" height="49"/>
  <rect class="cls-197" x="686" y="784" width="49" height="49"/>
  <rect class="cls-70" x="637" y="784" width="49" height="49"/>
  <rect class="cls-56" x="588" y="784" width="49" height="49"/>
  <rect class="cls-113" x="539" y="784" width="49" height="49"/>
  <rect class="cls-215" x="490" y="784" width="49" height="49"/>
  <rect class="cls-82" x="441" y="784" width="49" height="49"/>
  <rect class="cls-184" x="392" y="784" width="49" height="49"/>
  <rect class="cls-45" x="343" y="784" width="49" height="49"/>
  <rect class="cls-198" x="294" y="784" width="49" height="49"/>
  <rect class="cls-150" x="245" y="784" width="49" height="49"/>
  <rect class="cls-171" x="196" y="784" width="49" height="49"/>
  <rect class="cls-169" x="147" y="784" width="49" height="49"/>
  <rect class="cls-63" x="98" y="784" width="49" height="49"/>
  <rect class="cls-63" x="49" y="784" width="49" height="49"/>
  <rect class="cls-63" y="784" width="49" height="49"/>
  <rect class="cls-63" x="931" y="735" width="49" height="49"/>
  <rect class="cls-63" x="882" y="735" width="49" height="49"/>
  <rect class="cls-63" x="833" y="735" width="49" height="49"/>
  <rect class="cls-65" x="784" y="735" width="49" height="49"/>
  <rect class="cls-23" x="735" y="735" width="49" height="49"/>
  <rect class="cls-38" x="686" y="735" width="49" height="49"/>
  <rect class="cls-128" x="637" y="735" width="49" height="49"/>
  <rect class="cls-78" x="588" y="735" width="49" height="49"/>
  <rect class="cls-76" x="539" y="735" width="49" height="49"/>
  <rect class="cls-170" x="490" y="735" width="49" height="49"/>
  <rect class="cls-159" x="441" y="735" width="49" height="49"/>
  <rect class="cls-24" x="392" y="735" width="49" height="49"/>
  <rect class="cls-18" x="343" y="735" width="49" height="49"/>
  <rect class="cls-180" x="294" y="735" width="49" height="49"/>
  <rect class="cls-35" x="245" y="735" width="49" height="49"/>
  <rect class="cls-115" x="196" y="735" width="49" height="49"/>
  <rect class="cls-74" x="147" y="735" width="49" height="49"/>
  <rect class="cls-63" x="98" y="735" width="49" height="49"/>
  <rect class="cls-63" x="49" y="735" width="49" height="49"/>
  <rect class="cls-63" y="735" width="49" height="49"/>
  <rect class="cls-63" x="931" y="686" width="49" height="49"/>
  <rect class="cls-63" x="882" y="686" width="49" height="49"/>
  <rect class="cls-63" x="833" y="686" width="49" height="49"/>
  <rect class="cls-189" x="784" y="686" width="49" height="49"/>
  <rect class="cls-93" x="735" y="686" width="49" height="49"/>
  <rect class="cls-216" x="686" y="686" width="49" height="49"/>
  <rect class="cls-32" x="637" y="686" width="49" height="49"/>
  <rect class="cls-100" x="588" y="686" width="49" height="49"/>
  <rect class="cls-64" x="539" y="686" width="49" height="49"/>
  <rect class="cls-34" x="490" y="686" width="49" height="49"/>
  <rect class="cls-27" x="441" y="686" width="49" height="49"/>
  <rect class="cls-114" x="392" y="686" width="49" height="49"/>
  <rect class="cls-126" x="343" y="686" width="49" height="49"/>
  <rect class="cls-68" x="294" y="686" width="49" height="49"/>
  <rect class="cls-107" x="245" y="686" width="49" height="49"/>
  <rect class="cls-69" x="196" y="686" width="49" height="49"/>
  <rect class="cls-136" x="147" y="686" width="49" height="49"/>
  <rect class="cls-63" x="98" y="686" width="49" height="49"/>
  <rect class="cls-63" x="49" y="686" width="49" height="49"/>
  <rect class="cls-63" y="686" width="49" height="49"/>
  <rect class="cls-63" x="931" y="637" width="49" height="49"/>
  <rect class="cls-63" x="882" y="637" width="49" height="49"/>
  <rect class="cls-63" x="833" y="637" width="49" height="49"/>
  <rect class="cls-110" x="784" y="637" width="49" height="49"/>
  <rect class="cls-156" x="735" y="637" width="49" height="49"/>
  <rect class="cls-46" x="686" y="637" width="49" height="49"/>
  <rect class="cls-214" x="637" y="637" width="49" height="49"/>
  <rect class="cls-116" x="588" y="637" width="49" height="49"/>
  <rect class="cls-139" x="539" y="637" width="49" height="49"/>
  <rect class="cls-96" x="490" y="637" width="49" height="49"/>
  <rect class="cls-145" x="441" y="637" width="49" height="49"/>
  <rect class="cls-6" x="392" y="637" width="49" height="49"/>
  <rect class="cls-174" x="343" y="637" width="49" height="49"/>
  <rect class="cls-123" x="294" y="637" width="49" height="49"/>
  <rect class="cls-160" x="245" y="637" width="49" height="49"/>
  <rect class="cls-95" x="196" y="637" width="49" height="49"/>
  <rect class="cls-130" x="147" y="637" width="49" height="49"/>
  <rect class="cls-63" x="98" y="637" width="49" height="49"/>
  <rect class="cls-63" x="49" y="637" width="49" height="49"/>
  <rect class="cls-63" y="637" width="49" height="49"/>
  <rect class="cls-63" x="931" y="588" width="49" height="49"/>
  <rect class="cls-63" x="882" y="588" width="49" height="49"/>
  <rect class="cls-63" x="833" y="588" width="49" height="49"/>
  <rect class="cls-104" x="784" y="588" width="49" height="49"/>
  <rect class="cls-127" x="735" y="588" width="49" height="49"/>
  <rect class="cls-19" x="686" y="588" width="49" height="49"/>
  <rect class="cls-196" x="637" y="588" width="49" height="49"/>
  <rect class="cls-41" x="588" y="588" width="49" height="49"/>
  <rect class="cls-206" x="539" y="588" width="49" height="49"/>
  <rect class="cls-97" x="490" y="588" width="49" height="49"/>
  <rect class="cls-37" x="441" y="588" width="49" height="49"/>
  <rect class="cls-66" x="392" y="588" width="49" height="49"/>
  <rect class="cls-26" x="343" y="588" width="49" height="49"/>
  <rect class="cls-175" x="294" y="588" width="49" height="49"/>
  <rect class="cls-202" x="245" y="588" width="49" height="49"/>
  <rect class="cls-132" x="196" y="588" width="49" height="49"/>
  <rect class="cls-63" x="147" y="588" width="49" height="49"/>
  <rect class="cls-63" x="98" y="588" width="49" height="49"/>
  <rect class="cls-63" x="49" y="588" width="49" height="49"/>
  <rect class="cls-63" y="588" width="49" height="49"/>
  <rect class="cls-63" x="931" y="539" width="49" height="49"/>
  <rect class="cls-63" x="882" y="539" width="49" height="49"/>
  <rect class="cls-63" x="833" y="539" width="49" height="49"/>
  <rect class="cls-63" x="784" y="539" width="49" height="49"/>
  <rect class="cls-87" x="735" y="539" width="49" height="49"/>
  <rect class="cls-102" x="686" y="539" width="49" height="49"/>
  <rect class="cls-204" x="637" y="539" width="49" height="49"/>
  <rect class="cls-52" x="588" y="539" width="49" height="49"/>
  <rect class="cls-191" x="539" y="539" width="49" height="49"/>
  <rect class="cls-183" x="490" y="539" width="49" height="49"/>
  <rect class="cls-7" x="441" y="539" width="49" height="49"/>
  <rect class="cls-106" x="392" y="539" width="49" height="49"/>
  <rect class="cls-101" x="343" y="539" width="49" height="49"/>
  <rect class="cls-89" x="294" y="539" width="49" height="49"/>
  <rect class="cls-172" x="245" y="539" width="49" height="49"/>
  <rect class="cls-63" x="196" y="539" width="49" height="49"/>
  <rect class="cls-63" x="147" y="539" width="49" height="49"/>
  <rect class="cls-63" x="98" y="539" width="49" height="49"/>
  <rect class="cls-63" x="49" y="539" width="49" height="49"/>
  <rect class="cls-63" y="539" width="49" height="49"/>
  <rect class="cls-63" x="931" y="490" width="49" height="49"/>
  <rect class="cls-63" x="882" y="490" width="49" height="49"/>
  <rect class="cls-63" x="833" y="490" width="49" height="49"/>
  <rect class="cls-195" x="784" y="490" width="49" height="49"/>
  <rect class="cls-195" x="735" y="490" width="49" height="49"/>
  <rect class="cls-178" x="686" y="490" width="49" height="49"/>
  <rect class="cls-59" x="637" y="490" width="49" height="49"/>
  <rect class="cls-147" x="588" y="490" width="49" height="49"/>
  <rect class="cls-177" x="539" y="490" width="49" height="49"/>
  <rect class="cls-146" x="490" y="490" width="49" height="49"/>
  <rect class="cls-1" x="441" y="490" width="49" height="49"/>
  <rect class="cls-103" x="392" y="490" width="49" height="49"/>
  <rect class="cls-99" x="343" y="490" width="49" height="49"/>
  <rect class="cls-185" x="294" y="490" width="49" height="49"/>
  <rect class="cls-207" x="245" y="490" width="49" height="49"/>
  <rect class="cls-63" x="196" y="490" width="49" height="49"/>
  <rect class="cls-63" x="147" y="490" width="49" height="49"/>
  <rect class="cls-63" x="98" y="490" width="49" height="49"/>
  <rect class="cls-63" x="49" y="490" width="49" height="49"/>
  <rect class="cls-63" y="490" width="49" height="49"/>
  <rect class="cls-63" x="931" y="441" width="49" height="49"/>
  <rect class="cls-63" x="882" y="441" width="49" height="49"/>
  <rect class="cls-63" x="833" y="441" width="49" height="49"/>
  <rect class="cls-63" x="784" y="441" width="49" height="49"/>
  <rect class="cls-122" x="735" y="441" width="49" height="49"/>
  <rect class="cls-164" x="686" y="441" width="49" height="49"/>
  <rect class="cls-84" x="637" y="441" width="49" height="49"/>
  <rect class="cls-62" x="588" y="441" width="49" height="49"/>
  <rect class="cls-33" x="539" y="441" width="49" height="49"/>
  <rect class="cls-49" x="490" y="441" width="49" height="49"/>
  <rect class="cls-119" x="441" y="441" width="49" height="49"/>
  <rect class="cls-72" x="392" y="441" width="49" height="49"/>
  <rect class="cls-163" x="343" y="441" width="49" height="49"/>
  <rect class="cls-173" x="294" y="441" width="49" height="49"/>
  <rect class="cls-120" x="245" y="441" width="49" height="49"/>
  <rect class="cls-148" x="196" y="441" width="49" height="49"/>
  <rect class="cls-63" x="147" y="441" width="49" height="49"/>
  <rect class="cls-63" x="98" y="441" width="49" height="49"/>
  <rect class="cls-63" x="49" y="441" width="49" height="49"/>
  <rect class="cls-63" y="441" width="49" height="49"/>
  <rect class="cls-63" x="931" y="392" width="49" height="49"/>
  <rect class="cls-63" x="882" y="392" width="49" height="49"/>
  <rect class="cls-176" x="833" y="392" width="49" height="49"/>
  <rect class="cls-109" x="784" y="392" width="49" height="49"/>
  <rect class="cls-14" x="735" y="392" width="49" height="49"/>
  <rect class="cls-125" x="686" y="392" width="49" height="49"/>
  <rect class="cls-124" x="637" y="392" width="49" height="49"/>
  <rect class="cls-75" x="588" y="392" width="49" height="49"/>
  <rect class="cls-16" x="539" y="392" width="49" height="49"/>
  <rect class="cls-135" x="490" y="392" width="49" height="49"/>
  <rect class="cls-22" x="441" y="392" width="49" height="49"/>
  <rect class="cls-48" x="392" y="392" width="49" height="49"/>
  <rect class="cls-208" x="343" y="392" width="49" height="49"/>
  <rect class="cls-203" x="294" y="392" width="49" height="49"/>
  <rect class="cls-168" x="245" y="392" width="49" height="49"/>
  <rect class="cls-205" x="196" y="392" width="49" height="49"/>
  <rect class="cls-162" x="147" y="392" width="49" height="49"/>
  <rect class="cls-63" x="98" y="392" width="49" height="49"/>
  <rect class="cls-63" x="49" y="392" width="49" height="49"/>
  <rect class="cls-63" y="392" width="49" height="49"/>
  <rect class="cls-63" x="931" y="343" width="49" height="49"/>
  <rect class="cls-63" x="882" y="343" width="49" height="49"/>
  <rect class="cls-83" x="833" y="343" width="49" height="49"/>
  <rect class="cls-167" x="784" y="343" width="49" height="49"/>
  <rect class="cls-86" x="735" y="343" width="49" height="49"/>
  <rect class="cls-195" x="686" y="343" width="49" height="49"/>
  <rect class="cls-200" x="637" y="343" width="49" height="49"/>
  <rect class="cls-3" x="588" y="343" width="49" height="49"/>
  <rect class="cls-154" x="539" y="343" width="49" height="49"/>
  <rect class="cls-193" x="490" y="343" width="49" height="49"/>
  <rect class="cls-29" x="441" y="343" width="49" height="49"/>
  <rect class="cls-121" x="392" y="343" width="49" height="49"/>
  <rect class="cls-94" x="343" y="343" width="49" height="49"/>
  <rect class="cls-77" x="294" y="343" width="49" height="49"/>
  <rect class="cls-155" x="245" y="343" width="49" height="49"/>
  <rect class="cls-39" x="196" y="343" width="49" height="49"/>
  <rect class="cls-194" x="147" y="343" width="49" height="49"/>
  <rect class="cls-63" x="98" y="343" width="49" height="49"/>
  <rect class="cls-63" x="49" y="343" width="49" height="49"/>
  <rect class="cls-63" y="343" width="49" height="49"/>
  <rect class="cls-63" x="931" y="294" width="49" height="49"/>
  <rect class="cls-63" x="882" y="294" width="49" height="49"/>
  <rect class="cls-8" x="833" y="294" width="49" height="49"/>
  <rect class="cls-21" x="784" y="294" width="49" height="49"/>
  <rect class="cls-57" x="735" y="294" width="49" height="49"/>
  <rect class="cls-81" x="686" y="294" width="49" height="49"/>
  <rect class="cls-122" x="637" y="294" width="49" height="49"/>
  <rect class="cls-4" x="588" y="294" width="49" height="49"/>
  <rect class="cls-85" x="539" y="294" width="49" height="49"/>
  <rect class="cls-20" x="490" y="294" width="49" height="49"/>
  <rect class="cls-210" x="441" y="294" width="49" height="49"/>
  <rect class="cls-144" x="392" y="294" width="49" height="49"/>
  <rect class="cls-141" x="343" y="294" width="49" height="49"/>
  <rect class="cls-92" x="294" y="294" width="49" height="49"/>
  <rect class="cls-63" x="245" y="294" width="49" height="49"/>
  <rect class="cls-63" x="196" y="294" width="49" height="49"/>
  <rect class="cls-11" x="147" y="294" width="49" height="49"/>
  <rect class="cls-186" x="98" y="294" width="49" height="49"/>
  <rect class="cls-63" x="49" y="294" width="49" height="49"/>
  <rect class="cls-63" y="294" width="49" height="49"/>
  <rect class="cls-63" x="931" y="245" width="49" height="49"/>
  <rect class="cls-188" x="882" y="245" width="49" height="49"/>
  <rect class="cls-131" x="833" y="245" width="49" height="49"/>
  <rect class="cls-63" x="784" y="245" width="49" height="49"/>
  <rect class="cls-98" x="735" y="245" width="49" height="49"/>
  <rect class="cls-166" x="686" y="245" width="49" height="49"/>
  <rect class="cls-81" x="637" y="245" width="49" height="49"/>
  <rect class="cls-152" x="588" y="245" width="49" height="49"/>
  <rect class="cls-158" x="539" y="245" width="49" height="49"/>
  <rect class="cls-50" x="490" y="245" width="49" height="49"/>
  <rect class="cls-140" x="441" y="245" width="49" height="49"/>
  <rect class="cls-17" x="392" y="245" width="49" height="49"/>
  <rect class="cls-61" x="343" y="245" width="49" height="49"/>
  <rect class="cls-112" x="294" y="245" width="49" height="49"/>
  <rect class="cls-213" x="245" y="245" width="49" height="49"/>
  <rect class="cls-137" x="196" y="245" width="49" height="49"/>
  <rect class="cls-67" x="147" y="245" width="49" height="49"/>
  <rect class="cls-63" x="98" y="245" width="49" height="49"/>
  <rect class="cls-63" x="49" y="245" width="49" height="49"/>
  <rect class="cls-63" y="245" width="49" height="49"/>
  <rect class="cls-63" x="931" y="196" width="49" height="49"/>
  <rect class="cls-63" x="882" y="196" width="49" height="49"/>
  <rect class="cls-63" x="833" y="196" width="49" height="49"/>
  <rect class="cls-63" x="784" y="196" width="49" height="49"/>
  <rect class="cls-63" x="735" y="196" width="49" height="49"/>
  <rect class="cls-195" x="686" y="196" width="49" height="49"/>
  <rect class="cls-36" x="637" y="196" width="49" height="49"/>
  <rect class="cls-73" x="588" y="196" width="49" height="49"/>
  <rect class="cls-91" x="539" y="196" width="49" height="49"/>
  <rect class="cls-192" x="490" y="196" width="49" height="49"/>
  <rect class="cls-161" x="441" y="196" width="49" height="49"/>
  <rect class="cls-40" x="392" y="196" width="49" height="49"/>
  <rect class="cls-117" x="343" y="196" width="49" height="49"/>
  <rect class="cls-25" x="294" y="196" width="49" height="49"/>
  <rect class="cls-149" x="245" y="196" width="49" height="49"/>
  <rect class="cls-80" x="196" y="196" width="49" height="49"/>
  <rect class="cls-63" x="147" y="196" width="49" height="49"/>
  <rect class="cls-63" x="98" y="196" width="49" height="49"/>
  <rect class="cls-63" x="49" y="196" width="49" height="49"/>
  <rect class="cls-63" y="196" width="49" height="49"/>
  <rect class="cls-63" x="931" y="147" width="49" height="49"/>
  <rect class="cls-63" x="882" y="147" width="49" height="49"/>
  <rect class="cls-63" x="833" y="147" width="49" height="49"/>
  <rect class="cls-63" x="784" y="147" width="49" height="49"/>
  <rect class="cls-10" x="735" y="147" width="49" height="49"/>
  <rect class="cls-165" x="686" y="147" width="49" height="49"/>
  <rect class="cls-28" x="637" y="147" width="49" height="49"/>
  <rect class="cls-53" x="588" y="147" width="49" height="49"/>
  <rect class="cls-47" x="539" y="147" width="49" height="49"/>
  <rect class="cls-51" x="490" y="147" width="49" height="49"/>
  <rect class="cls-134" x="441" y="147" width="49" height="49"/>
  <rect class="cls-105" x="392" y="147" width="49" height="49"/>
  <rect class="cls-79" x="343" y="147" width="49" height="49"/>
  <rect class="cls-187" x="294" y="147" width="49" height="49"/>
  <rect class="cls-60" x="245" y="147" width="49" height="49"/>
  <rect class="cls-63" x="196" y="147" width="49" height="49"/>
  <rect class="cls-63" x="147" y="147" width="49" height="49"/>
  <rect class="cls-63" x="98" y="147" width="49" height="49"/>
  <rect class="cls-63" x="49" y="147" width="49" height="49"/>
  <rect class="cls-63" y="147" width="49" height="49"/>
  <rect class="cls-63" x="931" y="98" width="49" height="49"/>
  <rect class="cls-63" x="882" y="98" width="49" height="49"/>
  <rect class="cls-63" x="833" y="98" width="49" height="49"/>
  <rect class="cls-63" x="784" y="98" width="49" height="49"/>
  <rect class="cls-211" x="735" y="98" width="49" height="49"/>
  <rect class="cls-90" x="686" y="98" width="49" height="49"/>
  <rect class="cls-151" x="637" y="98" width="49" height="49"/>
  <rect class="cls-42" x="588" y="98" width="49" height="49"/>
  <rect class="cls-142" x="539" y="98" width="49" height="49"/>
  <rect class="cls-43" x="490" y="98" width="49" height="49"/>
  <rect class="cls-88" x="441" y="98" width="49" height="49"/>
  <rect class="cls-31" x="392" y="98" width="49" height="49"/>
  <rect class="cls-54" x="343" y="98" width="49" height="49"/>
  <rect class="cls-63" x="294" y="98" width="49" height="49"/>
  <rect class="cls-63" x="245" y="98" width="49" height="49"/>
  <rect class="cls-63" x="196" y="98" width="49" height="49"/>
  <rect class="cls-63" x="147" y="98" width="49" height="49"/>
  <rect class="cls-63" x="98" y="98" width="49" height="49"/>
  <rect class="cls-63" x="49" y="98" width="49" height="49"/>
  <rect class="cls-63" y="98" width="49" height="49"/>
  <rect class="cls-63" x="931" y="49" width="49" height="49"/>
  <rect class="cls-63" x="882" y="49" width="49" height="49"/>
  <rect class="cls-63" x="833" y="49" width="49" height="49"/>
  <rect class="cls-5" x="784" y="49" width="49" height="49"/>
  <rect class="cls-138" x="735" y="49" width="49" height="49"/>
  <rect class="cls-201" x="686" y="49" width="49" height="49"/>
  <rect class="cls-30" x="637" y="49" width="49" height="49"/>
  <rect class="cls-108" x="588" y="49" width="49" height="49"/>
  <rect class="cls-199" x="539" y="49" width="49" height="49"/>
  <rect class="cls-63" x="490" y="49" width="49" height="49"/>
  <rect class="cls-63" x="441" y="49" width="49" height="49"/>
  <rect class="cls-63" x="392" y="49" width="49" height="49"/>
  <rect class="cls-63" x="343" y="49" width="49" height="49"/>
  <rect class="cls-63" x="294" y="49" width="49" height="49"/>
  <rect class="cls-63" x="245" y="49" width="49" height="49"/>
  <rect class="cls-63" x="196" y="49" width="49" height="49"/>
  <rect class="cls-63" x="147" y="49" width="49" height="49"/>
  <rect class="cls-63" x="98" y="49" width="49" height="49"/>
  <rect class="cls-63" x="49" y="49" width="49" height="49"/>
  <rect class="cls-63" y="49" width="49" height="49"/>
  <rect class="cls-63" x="931" width="49" height="49"/>
  <rect class="cls-63" x="882" width="49" height="49"/>
  <rect class="cls-63" x="833" width="49" height="49"/>
  <rect class="cls-63" x="784" width="49" height="49"/>
  <rect class="cls-63" x="735" width="49" height="49"/>
  <rect class="cls-63" x="686" width="49" height="49"/>
  <rect class="cls-63" x="637" width="49" height="49"/>
  <rect class="cls-63" x="588" width="49" height="49"/>
  <rect class="cls-63" x="539" width="49" height="49"/>
  <rect class="cls-63" x="490" width="49" height="49"/>
  <rect class="cls-63" x="441" width="49" height="49"/>
  <rect class="cls-63" x="392" width="49" height="49"/>
  <rect class="cls-63" x="343" width="49" height="49"/>
  <rect class="cls-63" x="294" width="49" height="49"/>
  <rect class="cls-63" x="245" width="49" height="49"/>
  <rect class="cls-63" x="196" width="49" height="49"/>
  <rect class="cls-63" x="147" width="49" height="49"/>
  <rect class="cls-63" x="98" width="49" height="49"/>
  <rect class="cls-63" x="49" width="49" height="49"/>
  <rect class="cls-63" width="49" height="49"/>
</svg>