<?xml version="1.0" encoding="UTF-8"?>
<svg id="Layer_1" data-name="Layer 1" xmlns="http://www.w3.org/2000/svg" viewBox="0 0 634 490">
  <defs>
    <style>
      .cls-1 {
        fill: #00000000;
      }

      .cls-2 {
        fill: #7cff00;
      }
    </style>
  </defs>
  <rect class="cls-1" x="570.6" y="441" width="63.4" height="49"/>
  <rect class="cls-2" x="570.6" y="392" width="63.4" height="49"/>
  <rect class="cls-2" x="570.6" y="343" width="63.4" height="49"/>
  <rect class="cls-2" x="570.6" y="294" width="63.4" height="49"/>
  <rect class="cls-2" x="570.6" y="245" width="63.4" height="49"/>
  <rect class="cls-2" x="570.6" y="196" width="63.4" height="49"/>
  <rect class="cls-2" x="570.6" y="147" width="63.4" height="49"/>
  <rect class="cls-1" x="570.6" y="98" width="63.4" height="49"/>
  <rect class="cls-1" x="570.6" y="49" width="63.4" height="49"/>
  <rect class="cls-1" x="570.6" width="63.4" height="49"/>
  <rect class="cls-1" x="507.2" y="441" width="63.4" height="49"/>
  <rect class="cls-2" x="507.2" y="392" width="63.4" height="49"/>
  <rect class="cls-2" x="507.2" y="343" width="63.4" height="49"/>
  <rect class="cls-2" x="507.2" y="294" width="63.4" height="49"/>
  <rect class="cls-2" x="507.2" y="245" width="63.4" height="49"/>
  <rect class="cls-2" x="507.2" y="196" width="63.4" height="49"/>
  <rect class="cls-2" x="507.2" y="147" width="63.4" height="49"/>
  <rect class="cls-2" x="507.2" y="98" width="63.4" height="49"/>
  <rect class="cls-2" x="507.2" y="49" width="63.4" height="49"/>
  <rect class="cls-1" x="507.2" width="63.4" height="49"/>
  <rect class="cls-2" x="443.8" y="441" width="63.4" height="49"/>
  <rect class="cls-2" x="443.8" y="392" width="63.4" height="49"/>
  <rect class="cls-2" x="443.8" y="343" width="63.4" height="49"/>
  <rect class="cls-2" x="443.8" y="294" width="63.4" height="49"/>
  <rect class="cls-1" x="443.8" y="245" width="63.4" height="49"/>
  <rect class="cls-2" x="443.8" y="196" width="63.4" height="49"/>
  <rect class="cls-2" x="443.8" y="147" width="63.4" height="49"/>
  <rect class="cls-2" x="443.8" y="98" width="63.4" height="49"/>
  <rect class="cls-2" x="443.8" y="49" width="63.4" height="49"/>
  <rect class="cls-2" x="443.8" width="63.4" height="49"/>
  <rect class="cls-1" x="380.4" y="441" width="63.4" height="49"/>
  <rect class="cls-2" x="380.4" y="392" width="63.4" height="49"/>
  <rect class="cls-2" x="380.4" y="343" width="63.4" height="49"/>
  <rect class="cls-1" x="380.4" y="294" width="63.4" height="49"/>
  <rect class="cls-1" x="380.4" y="245" width="63.4" height="49"/>
  <rect class="cls-2" x="380.4" y="196" width="63.4" height="49"/>
  <rect class="cls-2" x="380.4" y="147" width="63.4" height="49"/>
  <rect class="cls-2" x="380.4" y="98" width="63.4" height="49"/>
  <rect class="cls-2" x="380.4" y="49" width="63.4" height="49"/>
  <rect class="cls-2" x="380.4" width="63.4" height="49"/>
  <rect class="cls-1" x="317" y="441" width="63.4" height="49"/>
  <rect class="cls-2" x="317" y="392" width="63.4" height="49"/>
  <rect class="cls-2" x="317" y="343" width="63.4" height="49"/>
  <rect class="cls-2" x="317" y="294" width="63.4" height="49"/>
  <rect class="cls-2" x="317" y="245" width="63.4" height="49"/>
  <rect class="cls-2" x="317" y="196" width="63.4" height="49"/>
  <rect class="cls-2" x="317" y="147" width="63.4" height="49"/>
  <rect class="cls-2" x="317" y="98" width="63.4" height="49"/>
  <rect class="cls-2" x="317" y="49" width="63.4" height="49"/>
  <rect class="cls-1" x="317" width="63.4" height="49"/>
  <rect class="cls-1" x="253.6" y="441" width="63.4" height="49"/>
  <rect class="cls-2" x="253.6" y="392" width="63.4" height="49"/>
  <rect class="cls-2" x="253.6" y="343" width="63.4" height="49"/>
  <rect class="cls-2" x="253.6" y="294" width="63.4" height="49"/>
  <rect class="cls-2" x="253.6" y="245" width="63.4" height="49"/>
  <rect class="cls-2" x="253.6" y="196" width="63.4" height="49"/>
  <rect class="cls-2" x="253.6" y="147" width="63.4" height="49"/>
  <rect class="cls-2" x="253.6" y="98" width="63.4" height="49"/>
  <rect class="cls-2" x="253.6" y="49" width="63.4" height="49"/>
  <rect class="cls-1" x="253.6" width="63.4" height="49"/>
  <rect class="cls-1" x="190.2" y="441" width="63.4" height="49"/>
  <rect class="cls-2" x="190.2" y="392" width="63.4" height="49"/>
  <rect class="cls-2" x="190.2" y="343" width="63.4" height="49"/>
  <rect class="cls-1" x="190.2" y="294" width="63.4" height="49"/>
  <rect class="cls-1" x="190.2" y="245" width="63.4" height="49"/>
  <rect class="cls-1" x="190.2" y="196" width="63.4" height="49"/>
  <rect class="cls-2" x="190.2" y="147" width="63.4" height="49"/>
  <rect class="cls-2" x="190.2" y="98" width="63.4" height="49"/>
  <rect class="cls-2" x="190.2" y="49" width="63.4" height="49"/>
  <rect class="cls-2" x="190.2" width="63.4" height="49"/>
  <rect class="cls-2" x="126.8" y="441" width="63.4" height="49"/>
  <rect class="cls-2" x="126.8" y="392" width="63.4" height="49"/>
  <rect class="cls-2" x="126.8" y="343" width="63.4" height="49"/>
  <rect class="cls-2" x="126.8" y="294" width="63.4" height="49"/>
  <rect class="cls-1" x="126.8" y="245" width="63.4" height="49"/>
  <rect class="cls-2" x="126.8" y="196" width="63.4" height="49"/>
  <rect class="cls-2" x="126.8" y="147" width="63.4" height="49"/>
  <rect class="cls-2" x="126.8" y="98" width="63.4" height="49"/>
  <rect class="cls-2" x="126.8" y="49" width="63.4" height="49"/>
  <rect class="cls-2" x="126.8" width="63.4" height="49"/>
  <rect class="cls-1" x="63.4" y="441" width="63.4" height="49"/>
  <rect class="cls-2" x="63.4" y="392" width="63.4" height="49"/>
  <rect class="cls-2" x="63.4" y="343" width="63.4" height="49"/>
  <rect class="cls-2" x="63.4" y="294" width="63.4" height="49"/>
  <rect class="cls-2" x="63.4" y="245" width="63.4" height="49"/>
  <rect class="cls-2" x="63.4" y="196" width="63.4" height="49"/>
  <rect class="cls-2" x="63.4" y="147" width="63.4" height="49"/>
  <rect class="cls-2" x="63.4" y="98" width="63.4" height="49"/>
  <rect class="cls-2" x="63.4" y="49" width="63.4" height="49"/>
  <rect class="cls-1" x="63.4" width="63.4" height="49"/>
  <rect class="cls-1" y="441" width="63.4" height="49"/>
  <rect class="cls-2" y="392" width="63.4" height="49"/>
  <rect class="cls-2" y="343" width="63.4" height="49"/>
  <rect class="cls-2" y="294" width="63.4" height="49"/>
  <rect class="cls-2" y="245" width="63.4" height="49"/>
  <rect class="cls-2" y="196" width="63.4" height="49"/>
  <rect class="cls-2" y="147" width="63.4" height="49"/>
  <rect class="cls-1" y="98" width="63.4" height="49"/>
  <rect class="cls-1" y="49" width="63.4" height="49"/>
  <rect class="cls-1" width="63.4" height="49"/>
</svg>