<?xml version="1.0" encoding="UTF-8"?>
<svg id="Layer_1" data-name="Layer 1" xmlns="http://www.w3.org/2000/svg" viewBox="0 0 800.5 801.5">
  <defs>
    <style>
      .cls-1 {
        fill: #00000000;
      }

      .cls-2 {
        fill: #7cff00;
      }

      .cls-3 {
        fill: #d5f9aa;
      }

      .cls-4 {
        fill: #bafc47;
      }
    </style>
  </defs>
  <rect class="cls-1" x="720.25" y="721.15" width="80" height="80.1"/>
  <rect class="cls-1" x="720.25" y="641.05" width="80" height="80.1"/>
  <rect class="cls-1" x="720.25" y="560.95" width="80" height="80.1"/>
  <rect class="cls-2" x="720.25" y="480.85" width="80" height="80.1"/>
  <rect class="cls-2" x="720.25" y="400.75" width="80" height="80.1"/>
  <rect class="cls-2" x="720.25" y="320.65" width="80" height="80.1"/>
  <rect class="cls-2" x="720.25" y="240.55" width="80" height="80.1"/>
  <rect class="cls-1" x="720.25" y="160.45" width="80" height="80.1"/>
  <rect class="cls-1" x="720.25" y="80.35" width="80" height="80.1"/>
  <rect class="cls-1" x="720.25" y=".25" width="80" height="80.1"/>
  <rect class="cls-1" x="640.25" y="721.15" width="80" height="80.1"/>
  <rect class="cls-2" x="640.25" y="641.05" width="80" height="80.1"/>
  <rect class="cls-2" x="640.25" y="560.95" width="80" height="80.1"/>
  <rect class="cls-2" x="640.25" y="480.85" width="80" height="80.1"/>
  <rect class="cls-2" x="640.25" y="400.75" width="80" height="80.1"/>
  <rect class="cls-2" x="640.25" y="320.65" width="80" height="80.1"/>
  <rect class="cls-2" x="640.25" y="240.55" width="80" height="80.1"/>
  <rect class="cls-2" x="640.25" y="160.45" width="80" height="80.1"/>
  <rect class="cls-2" x="640.25" y="80.35" width="80" height="80.1"/>
  <rect class="cls-1" x="640.25" y=".25" width="80" height="80.1"/>
  <rect class="cls-2" x="560.25" y="721.15" width="80" height="80.1"/>
  <rect class="cls-2" x="560.25" y="641.05" width="80" height="80.1"/>
  <rect class="cls-2" x="560.25" y="560.95" width="80" height="80.1"/>
  <rect class="cls-1" x="560.25" y="480.85" width="80" height="80.1"/>
  <rect class="cls-1" x="560.25" y="400.75" width="80" height="80.1"/>
  <rect class="cls-1" x="560.25" y="320.65" width="80" height="80.1"/>
  <rect class="cls-1" x="560.25" y="240.55" width="80" height="80.1"/>
  <rect class="cls-1" x="560.25" y="160.45" width="80" height="80.1"/>
  <rect class="cls-2" x="560.25" y="80.35" width="80" height="80.1"/>
  <rect class="cls-1" x="560.25" y=".25" width="80" height="80.1"/>
  <rect class="cls-2" x="480.25" y="721.15" width="80" height="80.1"/>
  <rect class="cls-2" x="480.25" y="641.05" width="80" height="80.1"/>
  <rect class="cls-2" x="480.25" y="560.95" width="80" height="80.1"/>
  <rect class="cls-1" x="480.25" y="480.85" width="80" height="80.1"/>
  <rect class="cls-1" x="480.25" y="400.75" width="80" height="80.1"/>
  <rect class="cls-1" x="480.25" y="320.65" width="80" height="80.1"/>
  <rect class="cls-1" x="480.25" y="240.55" width="80" height="80.1"/>
  <rect class="cls-1" x="480.25" y="160.45" width="80" height="80.1"/>
  <rect class="cls-2" x="480.25" y="80.35" width="80" height="80.1"/>
  <rect class="cls-2" x="480.25" y=".25" width="80" height="80.1"/>
  <rect class="cls-1" x="400.25" y="721.15" width="80" height="80.1"/>
  <rect class="cls-1" x="400.25" y="641.05" width="80" height="80.1"/>
  <rect class="cls-1" x="400.25" y="560.95" width="80" height="80.1"/>
  <rect class="cls-1" x="400.25" y="480.85" width="80" height="80.1"/>
  <rect class="cls-1" x="400.25" y="400.75" width="80" height="80.1"/>
  <rect class="cls-1" x="400.25" y="320.65" width="80" height="80.1"/>
  <rect class="cls-1" x="400.25" y="240.55" width="80" height="80.1"/>
  <rect class="cls-4" x="400.25" y="160.45" width="80" height="80.1"/>
  <rect class="cls-2" x="400.25" y="80.35" width="80" height="80.1"/>
  <rect class="cls-2" x="400.25" y=".25" width="80" height="80.1"/>
  <rect class="cls-1" x="320.25" y="721.15" width="80" height="80.1"/>
  <rect class="cls-1" x="320.25" y="641.05" width="80" height="80.1"/>
  <rect class="cls-1" x="320.25" y="560.95" width="80" height="80.1"/>
  <rect class="cls-1" x="320.25" y="480.85" width="80" height="80.1"/>
  <rect class="cls-1" x="320.25" y="400.75" width="80" height="80.1"/>
  <rect class="cls-1" x="320.25" y="320.65" width="80" height="80.1"/>
  <rect class="cls-1" x="320.25" y="240.55" width="80" height="80.1"/>
  <rect class="cls-3" x="320.25" y="160.45" width="80" height="80.1"/>
  <rect class="cls-2" x="320.25" y="80.35" width="80" height="80.1"/>
  <rect class="cls-2" x="320.25" y=".25" width="80" height="80.1"/>
  <rect class="cls-2" x="240.25" y="721.15" width="80" height="80.1"/>
  <rect class="cls-1" x="240.25" y="641.05" width="80" height="80.1"/>
  <rect class="cls-2" x="240.25" y="560.95" width="80" height="80.1"/>
  <rect class="cls-1" x="240.25" y="480.85" width="80" height="80.1"/>
  <rect class="cls-1" x="240.25" y="400.75" width="80" height="80.1"/>
  <rect class="cls-1" x="240.25" y="320.65" width="80" height="80.1"/>
  <rect class="cls-1" x="240.25" y="240.55" width="80" height="80.1"/>
  <rect class="cls-3" x="240.25" y="160.45" width="80" height="80.1"/>
  <rect class="cls-2" x="240.25" y="80.35" width="80" height="80.1"/>
  <rect class="cls-2" x="240.25" y=".25" width="80" height="80.1"/>
  <rect class="cls-2" x="160.25" y="721.15" width="80" height="80.1"/>
  <rect class="cls-1" x="160.25" y="641.05" width="80" height="80.1"/>
  <rect class="cls-2" x="160.25" y="560.95" width="80" height="80.1"/>
  <rect class="cls-1" x="160.25" y="480.85" width="80" height="80.1"/>
  <rect class="cls-1" x="160.25" y="400.75" width="80" height="80.1"/>
  <rect class="cls-1" x="160.25" y="320.65" width="80" height="80.1"/>
  <rect class="cls-1" x="160.25" y="240.55" width="80" height="80.1"/>
  <rect class="cls-1" x="160.25" y="160.45" width="80" height="80.1"/>
  <rect class="cls-2" x="160.25" y="80.35" width="80" height="80.1"/>
  <rect class="cls-1" x="160.25" y=".25" width="80" height="80.1"/>
  <rect class="cls-1" x="80.25" y="721.15" width="80" height="80.1"/>
  <rect class="cls-2" x="80.25" y="641.05" width="80" height="80.1"/>
  <rect class="cls-2" x="80.25" y="560.95" width="80" height="80.1"/>
  <rect class="cls-2" x="80.25" y="480.85" width="80" height="80.1"/>
  <rect class="cls-2" x="80.25" y="400.75" width="80" height="80.1"/>
  <rect class="cls-2" x="80.25" y="320.65" width="80" height="80.1"/>
  <rect class="cls-2" x="80.25" y="240.55" width="80" height="80.1"/>
  <rect class="cls-2" x="80.25" y="160.45" width="80" height="80.1"/>
  <rect class="cls-2" x="80.25" y="80.35" width="80" height="80.1"/>
  <rect class="cls-1" x="80.25" y=".25" width="80" height="80.1"/>
  <rect class="cls-1" x=".25" y="721.15" width="80" height="80.1"/>
  <rect class="cls-1" x=".25" y="641.05" width="80" height="80.1"/>
  <rect class="cls-1" x=".25" y="560.95" width="80" height="80.1"/>
  <rect class="cls-2" x=".25" y="480.85" width="80" height="80.1"/>
  <rect class="cls-2" x=".25" y="400.75" width="80" height="80.1"/>
  <rect class="cls-2" x=".25" y="320.65" width="80" height="80.1"/>
  <rect class="cls-2" x=".25" y="240.55" width="80" height="80.1"/>
  <rect class="cls-1" x=".25" y="160.45" width="80" height="80.1"/>
  <rect class="cls-1" x=".25" y="80.35" width="80" height="80.1"/>
  <rect class="cls-1" x=".25" y=".25" width="80" height="80.1"/>
</svg>