<?xml version="1.0" encoding="UTF-8"?>
<svg id="Layer_1" data-name="Layer 1" xmlns="http://www.w3.org/2000/svg" viewBox="0 0 734.5 734.5">
  <defs>
    <style>
      .cls-1 {
        fill: #00000000;
      }
      .cls-2 {
        fill: #7cff00;
      }
    </style>
  </defs>
  <rect class="cls-1" x="660.85" y="660.85" width="73.4" height="73.4"/>
  <rect class="cls-2" x="660.85" y="587.45" width="73.4" height="73.4"/>
  <rect class="cls-2" x="660.85" y="514.05" width="73.4" height="73.4"/>
  <rect class="cls-2" x="660.85" y="440.65" width="73.4" height="73.4"/>
  <rect class="cls-2" x="660.85" y="367.25" width="73.4" height="73.4"/>
  <rect class="cls-2" x="660.85" y="293.85" width="73.4" height="73.4"/>
  <rect class="cls-2" x="660.85" y="220.45" width="73.4" height="73.4"/>
  <rect class="cls-2" x="660.85" y="147.05" width="73.4" height="73.4"/>
  <rect class="cls-2" x="660.85" y="73.65" width="73.4" height="73.4"/>
  <rect class="cls-1" x="660.85" y=".25" width="73.4" height="73.4"/>
  <rect class="cls-2" x="587.45" y="660.85" width="73.4" height="73.4"/>
  <rect class="cls-1" x="587.45" y="587.45" width="73.4" height="73.4"/>
  <rect class="cls-1" x="587.45" y="514.05" width="73.4" height="73.4"/>
  <rect class="cls-1" x="587.45" y="440.65" width="73.4" height="73.4"/>
  <rect class="cls-1" x="587.45" y="367.25" width="73.4" height="73.4"/>
  <rect class="cls-1" x="587.45" y="293.85" width="73.4" height="73.4"/>
  <rect class="cls-1" x="587.45" y="220.45" width="73.4" height="73.4"/>
  <rect class="cls-1" x="587.45" y="147.05" width="73.4" height="73.4"/>
  <rect class="cls-1" x="587.45" y="73.65" width="73.4" height="73.4"/>
  <rect class="cls-2" x="587.45" y=".25" width="73.4" height="73.4"/>
  <rect class="cls-2" x="514.05" y="660.85" width="73.4" height="73.4"/>
  <rect class="cls-1" x="514.05" y="587.45" width="73.4" height="73.4"/>
  <rect class="cls-1" x="514.05" y="514.05" width="73.4" height="73.4"/>
  <rect class="cls-1" x="514.05" y="440.65" width="73.4" height="73.4"/>
  <rect class="cls-2" x="514.05" y="367.25" width="73.4" height="73.4"/>
  <rect class="cls-2" x="514.05" y="293.85" width="73.4" height="73.4"/>
  <rect class="cls-1" x="514.05" y="220.45" width="73.4" height="73.4"/>
  <rect class="cls-2" x="514.05" y="147.05" width="73.4" height="73.4"/>
  <rect class="cls-1" x="514.05" y="73.65" width="73.4" height="73.4"/>
  <rect class="cls-2" x="514.05" y=".25" width="73.4" height="73.4"/>
  <rect class="cls-2" x="440.65" y="660.85" width="73.4" height="73.4"/>
  <rect class="cls-1" x="440.65" y="587.45" width="73.4" height="73.4"/>
  <rect class="cls-1" x="440.65" y="514.05" width="73.4" height="73.4"/>
  <rect class="cls-2" x="440.65" y="440.65" width="73.4" height="73.4"/>
  <rect class="cls-1" x="440.65" y="367.25" width="73.4" height="73.4"/>
  <rect class="cls-1" x="440.65" y="293.85" width="73.4" height="73.4"/>
  <rect class="cls-2" x="440.65" y="220.45" width="73.4" height="73.4"/>
  <rect class="cls-1" x="440.65" y="147.05" width="73.4" height="73.4"/>
  <rect class="cls-1" x="440.65" y="73.65" width="73.4" height="73.4"/>
  <rect class="cls-2" x="440.65" y=".25" width="73.4" height="73.4"/>
  <rect class="cls-2" x="367.25" y="660.85" width="73.4" height="73.4"/>
  <rect class="cls-1" x="367.25" y="587.45" width="73.4" height="73.4"/>
  <rect class="cls-2" x="367.25" y="514.05" width="73.4" height="73.4"/>
  <rect class="cls-1" x="367.25" y="440.65" width="73.4" height="73.4"/>
  <rect class="cls-1" x="367.25" y="367.25" width="73.4" height="73.4"/>
  <rect class="cls-1" x="367.25" y="293.85" width="73.4" height="73.4"/>
  <rect class="cls-1" x="367.25" y="220.45" width="73.4" height="73.4"/>
  <rect class="cls-2" x="367.25" y="147.05" width="73.4" height="73.4"/>
  <rect class="cls-1" x="367.25" y="73.65" width="73.4" height="73.4"/>
  <rect class="cls-2" x="367.25" y=".25" width="73.4" height="73.4"/>
  <rect class="cls-2" x="293.85" y="660.85" width="73.4" height="73.4"/>
  <rect class="cls-1" x="293.85" y="587.45" width="73.4" height="73.4"/>
  <rect class="cls-2" x="293.85" y="514.05" width="73.4" height="73.4"/>
  <rect class="cls-1" x="293.85" y="440.65" width="73.4" height="73.4"/>
  <rect class="cls-1" x="293.85" y="367.25" width="73.4" height="73.4"/>
  <rect class="cls-1" x="293.85" y="293.85" width="73.4" height="73.4"/>
  <rect class="cls-1" x="293.85" y="220.45" width="73.4" height="73.4"/>
  <rect class="cls-2" x="293.85" y="147.05" width="73.4" height="73.4"/>
  <rect class="cls-1" x="293.85" y="73.65" width="73.4" height="73.4"/>
  <rect class="cls-2" x="293.85" y=".25" width="73.4" height="73.4"/>
  <rect class="cls-2" x="220.45" y="660.85" width="73.4" height="73.4"/>
  <rect class="cls-1" x="220.45" y="587.45" width="73.4" height="73.4"/>
  <rect class="cls-1" x="220.45" y="514.05" width="73.4" height="73.4"/>
  <rect class="cls-2" x="220.45" y="440.65" width="73.4" height="73.4"/>
  <rect class="cls-1" x="220.45" y="367.25" width="73.4" height="73.4"/>
  <rect class="cls-1" x="220.45" y="293.85" width="73.4" height="73.4"/>
  <rect class="cls-2" x="220.45" y="220.45" width="73.4" height="73.4"/>
  <rect class="cls-1" x="220.45" y="147.05" width="73.4" height="73.4"/>
  <rect class="cls-1" x="220.45" y="73.65" width="73.4" height="73.4"/>
  <rect class="cls-2" x="220.45" y=".25" width="73.4" height="73.4"/>
  <rect class="cls-2" x="147.05" y="660.85" width="73.4" height="73.4"/>
  <rect class="cls-1" x="147.05" y="587.45" width="73.4" height="73.4"/>
  <rect class="cls-1" x="147.05" y="514.05" width="73.4" height="73.4"/>
  <rect class="cls-1" x="147.05" y="440.65" width="73.4" height="73.4"/>
  <rect class="cls-2" x="147.05" y="367.25" width="73.4" height="73.4"/>
  <rect class="cls-2" x="147.05" y="293.85" width="73.4" height="73.4"/>
  <rect class="cls-1" x="147.05" y="220.45" width="73.4" height="73.4"/>
  <rect class="cls-1" x="147.05" y="147.05" width="73.4" height="73.4"/>
  <rect class="cls-1" x="147.05" y="73.65" width="73.4" height="73.4"/>
  <rect class="cls-2" x="147.05" y=".25" width="73.4" height="73.4"/>
  <rect class="cls-2" x="73.65" y="660.85" width="73.4" height="73.4"/>
  <rect class="cls-1" x="73.65" y="587.45" width="73.4" height="73.4"/>
  <rect class="cls-1" x="73.65" y="514.05" width="73.4" height="73.4"/>
  <rect class="cls-1" x="73.65" y="440.65" width="73.4" height="73.4"/>
  <rect class="cls-1" x="73.65" y="367.25" width="73.4" height="73.4"/>
  <rect class="cls-1" x="73.65" y="293.85" width="73.4" height="73.4"/>
  <rect class="cls-1" x="73.65" y="220.45" width="73.4" height="73.4"/>
  <rect class="cls-1" x="73.65" y="147.05" width="73.4" height="73.4"/>
  <rect class="cls-1" x="73.65" y="73.65" width="73.4" height="73.4"/>
  <rect class="cls-2" x="73.65" y=".25" width="73.4" height="73.4"/>
  <rect class="cls-1" x=".25" y="660.85" width="73.4" height="73.4"/>
  <rect class="cls-2" x=".25" y="587.45" width="73.4" height="73.4"/>
  <rect class="cls-2" x=".25" y="514.05" width="73.4" height="73.4"/>
  <rect class="cls-2" x=".25" y="440.65" width="73.4" height="73.4"/>
  <rect class="cls-2" x=".25" y="367.25" width="73.4" height="73.4"/>
  <rect class="cls-2" x=".25" y="293.85" width="73.4" height="73.4"/>
  <rect class="cls-2" x=".25" y="220.45" width="73.4" height="73.4"/>
  <rect class="cls-2" x=".25" y="147.05" width="73.4" height="73.4"/>
  <rect class="cls-2" x=".25" y="73.65" width="73.4" height="73.4"/>
  <rect class="cls-1" x=".25" y=".25" width="73.4" height="73.4"/>
</svg>