<?xml version="1.0" encoding="UTF-8"?>
<svg id="Layer_1" data-name="Layer 1" xmlns="http://www.w3.org/2000/svg" viewBox="0 0 750.5 564.5">
  <defs>
    <style>
      .cls-1 {
        fill: #00000000;
      }

      .cls-2 {
        fill: #7cff00;
      }
    </style>
  </defs>
  <rect class="cls-2" x="675.25" y="507.85" width="75" height="56.4"/>
  <rect class="cls-2" x="675.25" y="451.45" width="75" height="56.4"/>
  <rect class="cls-2" x="675.25" y="395.05" width="75" height="56.4"/>
  <rect class="cls-2" x="675.25" y="338.65" width="75" height="56.4"/>
  <rect class="cls-2" x="675.25" y="282.25" width="75" height="56.4"/>
  <rect class="cls-2" x="675.25" y="225.85" width="75" height="56.4"/>
  <rect class="cls-2" x="675.25" y="169.45" width="75" height="56.4"/>
  <rect class="cls-2" x="675.25" y="113.05" width="75" height="56.4"/>
  <rect class="cls-2" x="675.25" y="56.65" width="75" height="56.4"/>
  <rect class="cls-2" x="675.25" y=".25" width="75" height="56.4"/>
  <rect class="cls-2" x="600.25" y="507.85" width="75" height="56.4"/>
  <rect class="cls-2" x="600.25" y="451.45" width="75" height="56.4"/>
  <rect class="cls-2" x="600.25" y="395.05" width="75" height="56.4"/>
  <rect class="cls-2" x="600.25" y="338.65" width="75" height="56.4"/>
  <rect class="cls-2" x="600.25" y="282.25" width="75" height="56.4"/>
  <rect class="cls-2" x="600.25" y="225.85" width="75" height="56.4"/>
  <rect class="cls-2" x="600.25" y="169.45" width="75" height="56.4"/>
  <rect class="cls-2" x="600.25" y="113.05" width="75" height="56.4"/>
  <rect class="cls-2" x="600.25" y="56.65" width="75" height="56.4"/>
  <rect class="cls-2" x="600.25" y=".25" width="75" height="56.4"/>
  <rect class="cls-1" x="525.25" y="507.85" width="75" height="56.4"/>
  <rect class="cls-1" x="525.25" y="451.45" width="75" height="56.4"/>
  <rect class="cls-1" x="525.25" y="395.05" width="75" height="56.4"/>
  <rect class="cls-1" x="525.25" y="338.65" width="75" height="56.4"/>
  <rect class="cls-1" x="525.25" y="282.25" width="75" height="56.4"/>
  <rect class="cls-2" x="525.25" y="225.85" width="75" height="56.4"/>
  <rect class="cls-2" x="525.25" y="169.45" width="75" height="56.4"/>
  <rect class="cls-2" x="525.25" y="113.05" width="75" height="56.4"/>
  <rect class="cls-2" x="525.25" y="56.65" width="75" height="56.4"/>
  <rect class="cls-1" x="525.25" y=".25" width="75" height="56.4"/>
  <rect class="cls-1" x="450.25" y="507.85" width="75" height="56.4"/>
  <rect class="cls-1" x="450.25" y="451.45" width="75" height="56.4"/>
  <rect class="cls-1" x="450.25" y="395.05" width="75" height="56.4"/>
  <rect class="cls-1" x="450.25" y="338.65" width="75" height="56.4"/>
  <rect class="cls-2" x="450.25" y="282.25" width="75" height="56.4"/>
  <rect class="cls-2" x="450.25" y="225.85" width="75" height="56.4"/>
  <rect class="cls-2" x="450.25" y="169.45" width="75" height="56.4"/>
  <rect class="cls-2" x="450.25" y="113.05" width="75" height="56.4"/>
  <rect class="cls-1" x="450.25" y="56.65" width="75" height="56.4"/>
  <rect class="cls-1" x="450.25" y=".25" width="75" height="56.4"/>
  <rect class="cls-1" x="375.25" y="507.85" width="75" height="56.4"/>
  <rect class="cls-1" x="375.25" y="451.45" width="75" height="56.4"/>
  <rect class="cls-1" x="375.25" y="395.05" width="75" height="56.4"/>
  <rect class="cls-2" x="375.25" y="338.65" width="75" height="56.4"/>
  <rect class="cls-2" x="375.25" y="282.25" width="75" height="56.4"/>
  <rect class="cls-2" x="375.25" y="225.85" width="75" height="56.4"/>
  <rect class="cls-2" x="375.25" y="169.45" width="75" height="56.4"/>
  <rect class="cls-1" x="375.25" y="113.05" width="75" height="56.4"/>
  <rect class="cls-1" x="375.25" y="56.65" width="75" height="56.4"/>
  <rect class="cls-1" x="375.25" y=".25" width="75" height="56.4"/>
  <rect class="cls-1" x="300.25" y="507.85" width="75" height="56.4"/>
  <rect class="cls-1" x="300.25" y="451.45" width="75" height="56.4"/>
  <rect class="cls-1" x="300.25" y="395.05" width="75" height="56.4"/>
  <rect class="cls-2" x="300.25" y="338.65" width="75" height="56.4"/>
  <rect class="cls-2" x="300.25" y="282.25" width="75" height="56.4"/>
  <rect class="cls-2" x="300.25" y="225.85" width="75" height="56.4"/>
  <rect class="cls-2" x="300.25" y="169.45" width="75" height="56.4"/>
  <rect class="cls-1" x="300.25" y="113.05" width="75" height="56.4"/>
  <rect class="cls-1" x="300.25" y="56.65" width="75" height="56.4"/>
  <rect class="cls-1" x="300.25" y=".25" width="75" height="56.4"/>
  <rect class="cls-1" x="225.25" y="507.85" width="75" height="56.4"/>
  <rect class="cls-1" x="225.25" y="451.45" width="75" height="56.4"/>
  <rect class="cls-1" x="225.25" y="395.05" width="75" height="56.4"/>
  <rect class="cls-1" x="225.25" y="338.65" width="75" height="56.4"/>
  <rect class="cls-2" x="225.25" y="282.25" width="75" height="56.4"/>
  <rect class="cls-2" x="225.25" y="225.85" width="75" height="56.4"/>
  <rect class="cls-2" x="225.25" y="169.45" width="75" height="56.4"/>
  <rect class="cls-2" x="225.25" y="113.05" width="75" height="56.4"/>
  <rect class="cls-1" x="225.25" y="56.65" width="75" height="56.4"/>
  <rect class="cls-1" x="225.25" y=".25" width="75" height="56.4"/>
  <rect class="cls-1" x="150.25" y="507.85" width="75" height="56.4"/>
  <rect class="cls-1" x="150.25" y="451.45" width="75" height="56.4"/>
  <rect class="cls-1" x="150.25" y="395.05" width="75" height="56.4"/>
  <rect class="cls-1" x="150.25" y="338.65" width="75" height="56.4"/>
  <rect class="cls-1" x="150.25" y="282.25" width="75" height="56.4"/>
  <rect class="cls-2" x="150.25" y="225.85" width="75" height="56.4"/>
  <rect class="cls-2" x="150.25" y="169.45" width="75" height="56.4"/>
  <rect class="cls-2" x="150.25" y="113.05" width="75" height="56.4"/>
  <rect class="cls-2" x="150.25" y="56.65" width="75" height="56.4"/>
  <rect class="cls-1" x="150.25" y=".25" width="75" height="56.4"/>
  <rect class="cls-2" x="75.25" y="507.85" width="75" height="56.4"/>
  <rect class="cls-2" x="75.25" y="451.45" width="75" height="56.4"/>
  <rect class="cls-2" x="75.25" y="395.05" width="75" height="56.4"/>
  <rect class="cls-2" x="75.25" y="338.65" width="75" height="56.4"/>
  <rect class="cls-2" x="75.25" y="282.25" width="75" height="56.4"/>
  <rect class="cls-2" x="75.25" y="225.85" width="75" height="56.4"/>
  <rect class="cls-2" x="75.25" y="169.45" width="75" height="56.4"/>
  <rect class="cls-2" x="75.25" y="113.05" width="75" height="56.4"/>
  <rect class="cls-2" x="75.25" y="56.65" width="75" height="56.4"/>
  <rect class="cls-2" x="75.25" y=".25" width="75" height="56.4"/>
  <rect class="cls-2" x=".25" y="507.85" width="75" height="56.4"/>
  <rect class="cls-2" x=".25" y="451.45" width="75" height="56.4"/>
  <rect class="cls-2" x=".25" y="395.05" width="75" height="56.4"/>
  <rect class="cls-2" x=".25" y="338.65" width="75" height="56.4"/>
  <rect class="cls-2" x=".25" y="282.25" width="75" height="56.4"/>
  <rect class="cls-2" x=".25" y="225.85" width="75" height="56.4"/>
  <rect class="cls-2" x=".25" y="169.45" width="75" height="56.4"/>
  <rect class="cls-2" x=".25" y="113.05" width="75" height="56.4"/>
  <rect class="cls-2" x=".25" y="56.65" width="75" height="56.4"/>
  <rect class="cls-2" x=".25" y=".25" width="75" height="56.4"/>
</svg>