<?xml version="1.0" encoding="UTF-8"?>
<svg id="Layer_1" data-name="Layer 1" xmlns="http://www.w3.org/2000/svg" viewBox="0 0 2730 2730">
  <defs>
    <style>
      .cls-1 {
        fill: #d8e7e6;
      }

      .cls-2 {
        fill: #846520;
      }

      .cls-3 {
        fill: #121414;
      }

      .cls-4 {
        fill: #e6edef;
      }

      .cls-5 {
        fill: #181715;
      }

      .cls-6 {
        fill: #aec1bf;
      }

      .cls-7 {
        fill: #dbe9e9;
      }

      .cls-8 {
        fill: #bb9337;
      }

      .cls-9 {
        fill: #d6a534;
      }

      .cls-10 {
        fill: #cde1e0;
      }

      .cls-11 {
        fill: #1b1d1d;
      }

      .cls-12 {
        fill: #8e0f03;
      }

      .cls-13 {
        fill: #94a09e;
      }

      .cls-14 {
        fill: #2d3635;
      }

      .cls-15 {
        fill: #101110;
      }

      .cls-16 {
        fill: #612917;
      }

      .cls-17 {
        fill: #050606;
      }

      .cls-18 {
        fill: #00000000;
      }

      .cls-19 {
        fill: #ddaa36;
      }

      .cls-20 {
        fill: #1e211d;
      }

      .cls-21 {
        fill: #c7dddc;
      }

      .cls-22 {
        fill: #778484;
      }

      .cls-23 {
        fill: #961001;
      }

      .cls-24 {
        fill: #f91a01;
      }

      .cls-25 {
        fill: #f2ba3e;
      }

      .cls-26 {
        fill: #fcc13f;
      }

      .cls-27 {
        fill: #951000;
      }

      .cls-28 {
        fill: #261f0f;
      }

      .cls-29 {
        fill: #ddebeb;
      }

      .cls-30 {
        fill: #fbc23f;
      }

      .cls-31 {
        fill: #e1e9e9;
      }

      .cls-32 {
        fill: #ccd9d7;
      }

      .cls-33 {
        fill: #f9bf40;
      }

      .cls-34 {
        fill: #d7e6e3;
      }

      .cls-35 {
        fill: #93a9a7;
      }

      .cls-36 {
        fill: #c3cecd;
      }

      .cls-37 {
        fill: #a57f2a;
      }

      .cls-38 {
        fill: #8a9d9b;
      }

      .cls-39 {
        fill: #a8bcb9;
      }

      .cls-40 {
        fill: #9c7a2c;
      }

      .cls-41 {
        fill: #abbcbb;
      }

      .cls-42 {
        fill: #a1acac;
      }

      .cls-43 {
        fill: #c21401;
      }

      .cls-44 {
        fill: #ecb73d;
      }

      .cls-45 {
        fill: #cc9c32;
      }

      .cls-46 {
        fill: #c6d2d1;
      }

      .cls-47 {
        fill: #5d6261;
      }

      .cls-48 {
        fill: #201a0c;
      }

      .cls-49 {
        fill: #2d2c21;
      }

      .cls-50 {
        fill: #a67f2a;
      }

      .cls-51 {
        fill: #a57f29;
      }

      .cls-52 {
        fill: #9a0f01;
      }

      .cls-53 {
        fill: #81692e;
      }

      .cls-54 {
        fill: #4d5655;
      }

      .cls-55 {
        fill: #505b5a;
      }

      .cls-56 {
        fill: #f6351c;
      }

      .cls-57 {
        fill: #401314;
      }

      .cls-58 {
        fill: #98adaa;
      }

      .cls-59 {
        fill: #eeb63a;
      }

      .cls-60 {
        fill: #6e541b;
      }

      .cls-61 {
        fill: #bbcfce;
      }

      .cls-62 {
        fill: #050504;
      }

      .cls-63 {
        fill: #cce0de;
      }

      .cls-64 {
        fill: #a47e2a;
      }

      .cls-65 {
        fill: #dba736;
      }

      .cls-66 {
        fill: #a57e29;
      }

      .cls-67 {
        fill: #771007;
      }

      .cls-68 {
        fill: #1e2020;
      }

      .cls-69 {
        fill: #c3c6c5;
      }

      .cls-70 {
        fill: #c6dddb;
      }

      .cls-71 {
        fill: #030303;
      }

      .cls-72 {
        fill: #9da6a8;
      }

      .cls-73 {
        fill: #c09534;
      }

      .cls-74 {
        fill: #eaf1f1;
      }

      .cls-75 {
        fill: #707f7d;
      }

      .cls-76 {
        fill: #fa1b01;
      }

      .cls-77 {
        fill: #fdc13f;
      }

      .cls-78 {
        fill: #687977;
      }

      .cls-79 {
        fill: #fcc140;
      }

      .cls-80 {
        fill: #f4bc3d;
      }

      .cls-81 {
        fill: #b1bdbb;
      }

      .cls-82 {
        fill: #bbd6d3;
      }

      .cls-83 {
        fill: #cad9d9;
      }

      .cls-84 {
        fill: #bbd5d3;
      }

      .cls-85 {
        fill: #bcced0;
      }

      .cls-86 {
        fill: #520d0e;
      }

      .cls-87 {
        fill: #8a9b99;
      }

      .cls-88 {
        fill: #c6dddc;
      }

      .cls-89 {
        fill: #c0d8d7;
      }

      .cls-90 {
        fill: #e9f1f1;
      }

      .cls-91 {
        fill: #8b7030;
      }

      .cls-92 {
        fill: #8d9e9c;
      }

      .cls-93 {
        fill: #2c1917;
      }

      .cls-94 {
        fill: #f3bb3e;
      }

      .cls-95 {
        fill: #d41601;
      }

      .cls-96 {
        fill: #a7b1b0;
      }

      .cls-97 {
        fill: #eb1802;
      }

      .cls-98 {
        fill: #b8cecd;
      }

      .cls-99 {
        fill: #a5bcb8;
      }

      .cls-100 {
        fill: #8c9c9b;
      }

      .cls-101 {
        fill: #dceaea;
      }

      .cls-102 {
        fill: #f3f7df;
      }

      .cls-103 {
        fill: #735a28;
      }

      .cls-104 {
        fill: #2b2414;
      }

      .cls-105 {
        fill: #f4d1b9;
      }

      .cls-106 {
        fill: #e6edee;
      }

      .cls-107 {
        fill: #cddcdd;
      }

      .cls-108 {
        fill: #52421b;
      }

      .cls-109 {
        fill: #dae7e7;
      }

      .cls-110 {
        fill: #fcc23f;
      }

      .cls-111 {
        fill: #2c3231;
      }

      .cls-112 {
        fill: #d0dedc;
      }

      .cls-113 {
        fill: #1c1d1d;
      }

      .cls-114 {
        fill: #fa1b02;
      }

      .cls-115 {
        fill: #65706e;
      }
    </style>
  </defs>
  <rect class="cls-18" x="2593.5" y="2593.5" width="136.5" height="136.5"/>
  <rect class="cls-18" x="2457" y="2593.5" width="136.5" height="136.5"/>
  <rect class="cls-18" x="2320.5" y="2593.5" width="136.5" height="136.5"/>
  <rect class="cls-18" x="2184" y="2593.5" width="136.5" height="136.5"/>
  <rect class="cls-18" x="2047.5" y="2593.5" width="136.5" height="136.5"/>
  <rect class="cls-18" x="1911" y="2593.5" width="136.5" height="136.5"/>
  <rect class="cls-18" x="1774.5" y="2593.5" width="136.5" height="136.5"/>
  <rect class="cls-18" x="1638" y="2593.5" width="136.5" height="136.5"/>
  <rect class="cls-18" x="1501.5" y="2593.5" width="136.5" height="136.5"/>
  <rect class="cls-18" x="1365" y="2593.5" width="136.5" height="136.5"/>
  <rect class="cls-18" x="1228.5" y="2593.5" width="136.5" height="136.5"/>
  <rect class="cls-18" x="1092" y="2593.5" width="136.5" height="136.5"/>
  <rect class="cls-18" x="955.5" y="2593.5" width="136.5" height="136.5"/>
  <rect class="cls-18" x="819" y="2593.5" width="136.5" height="136.5"/>
  <rect class="cls-18" x="682.5" y="2593.5" width="136.5" height="136.5"/>
  <rect class="cls-18" x="546" y="2593.5" width="136.5" height="136.5"/>
  <rect class="cls-18" x="409.5" y="2593.5" width="136.5" height="136.5"/>
  <rect class="cls-18" x="273" y="2593.5" width="136.5" height="136.5"/>
  <rect class="cls-18" x="136.5" y="2593.5" width="136.5" height="136.5"/>
  <rect class="cls-18" y="2593.5" width="136.5" height="136.5"/>
  <rect class="cls-18" x="2593.5" y="2457" width="136.5" height="136.5"/>
  <rect class="cls-18" x="2457" y="2457" width="136.5" height="136.5"/>
  <rect class="cls-18" x="2320.5" y="2457" width="136.5" height="136.5"/>
  <rect class="cls-18" x="2184" y="2457" width="136.5" height="136.5"/>
  <rect class="cls-18" x="2047.5" y="2457" width="136.5" height="136.5"/>
  <rect class="cls-20" x="1911" y="2457" width="136.5" height="136.5"/>
  <rect class="cls-18" x="1774.5" y="2457" width="136.5" height="136.5"/>
  <rect class="cls-18" x="1638" y="2457" width="136.5" height="136.5"/>
  <rect class="cls-18" x="1501.5" y="2457" width="136.5" height="136.5"/>
  <rect class="cls-18" x="1365" y="2457" width="136.5" height="136.5"/>
  <rect class="cls-18" x="1228.5" y="2457" width="136.5" height="136.5"/>
  <rect class="cls-18" x="1092" y="2457" width="136.5" height="136.5"/>
  <rect class="cls-18" x="955.5" y="2457" width="136.5" height="136.5"/>
  <rect class="cls-18" x="819" y="2457" width="136.5" height="136.5"/>
  <rect class="cls-18" x="682.5" y="2457" width="136.5" height="136.5"/>
  <rect class="cls-18" x="546" y="2457" width="136.5" height="136.5"/>
  <rect class="cls-18" x="409.5" y="2457" width="136.5" height="136.5"/>
  <rect class="cls-18" x="273" y="2457" width="136.5" height="136.5"/>
  <rect class="cls-18" x="136.5" y="2457" width="136.5" height="136.5"/>
  <rect class="cls-18" y="2457" width="136.5" height="136.5"/>
  <rect class="cls-18" x="2593.5" y="2320.5" width="136.5" height="136.5"/>
  <rect class="cls-18" x="2457" y="2320.5" width="136.5" height="136.5"/>
  <rect class="cls-18" x="2320.5" y="2320.5" width="136.5" height="136.5"/>
  <rect class="cls-18" x="2184" y="2320.5" width="136.5" height="136.5"/>
  <rect class="cls-18" x="2047.5" y="2320.5" width="136.5" height="136.5"/>
  <rect class="cls-69" x="1911" y="2320.5" width="136.5" height="136.5"/>
  <rect class="cls-18" x="1774.5" y="2320.5" width="136.5" height="136.5"/>
  <rect class="cls-18" x="1638" y="2320.5" width="136.5" height="136.5"/>
  <rect class="cls-18" x="1501.5" y="2320.5" width="136.5" height="136.5"/>
  <rect class="cls-18" x="1365" y="2320.5" width="136.5" height="136.5"/>
  <rect class="cls-26" x="1228.5" y="2320.5" width="136.5" height="136.5"/>
  <rect class="cls-49" x="1092" y="2320.5" width="136.5" height="136.5"/>
  <rect class="cls-60" x="955.5" y="2320.5" width="136.5" height="136.5"/>
  <rect class="cls-18" x="819" y="2320.5" width="136.5" height="136.5"/>
  <rect class="cls-79" x="682.5" y="2320.5" width="136.5" height="136.5"/>
  <rect class="cls-59" x="546" y="2320.5" width="136.5" height="136.5"/>
  <rect class="cls-65" x="409.5" y="2320.5" width="136.5" height="136.5"/>
  <rect class="cls-18" x="273" y="2320.5" width="136.5" height="136.5"/>
  <rect class="cls-18" x="136.5" y="2320.5" width="136.5" height="136.5"/>
  <rect class="cls-18" y="2320.5" width="136.5" height="136.5"/>
  <rect class="cls-18" x="2593.5" y="2184" width="136.5" height="136.5"/>
  <rect class="cls-18" x="2457" y="2184" width="136.5" height="136.5"/>
  <rect class="cls-18" x="2320.5" y="2184" width="136.5" height="136.5"/>
  <rect class="cls-18" x="2184" y="2184" width="136.5" height="136.5"/>
  <rect class="cls-18" x="2047.5" y="2184" width="136.5" height="136.5"/>
  <rect class="cls-91" x="1911" y="2184" width="136.5" height="136.5"/>
  <rect class="cls-18" x="1774.5" y="2184" width="136.5" height="136.5"/>
  <rect class="cls-18" x="1638" y="2184" width="136.5" height="136.5"/>
  <rect class="cls-18" x="1501.5" y="2184" width="136.5" height="136.5"/>
  <rect class="cls-37" x="1365" y="2184" width="136.5" height="136.5"/>
  <rect class="cls-13" x="1228.5" y="2184" width="136.5" height="136.5"/>
  <rect class="cls-86" x="1092" y="2184" width="136.5" height="136.5"/>
  <rect class="cls-57" x="955.5" y="2184" width="136.5" height="136.5"/>
  <rect class="cls-15" x="819" y="2184" width="136.5" height="136.5"/>
  <rect class="cls-78" x="682.5" y="2184" width="136.5" height="136.5"/>
  <rect class="cls-32" x="546" y="2184" width="136.5" height="136.5"/>
  <rect class="cls-68" x="409.5" y="2184" width="136.5" height="136.5"/>
  <rect class="cls-89" x="273" y="2184" width="136.5" height="136.5"/>
  <rect class="cls-61" x="136.5" y="2184" width="136.5" height="136.5"/>
  <rect class="cls-18" y="2184" width="136.5" height="136.5"/>
  <rect class="cls-18" x="2593.5" y="2047.5" width="136.5" height="136.5"/>
  <rect class="cls-8" x="2457" y="2047.5" width="136.5" height="136.5"/>
  <rect class="cls-37" x="2320.5" y="2047.5" width="136.5" height="136.5"/>
  <rect class="cls-18" x="2184" y="2047.5" width="136.5" height="136.5"/>
  <rect class="cls-18" x="2047.5" y="2047.5" width="136.5" height="136.5"/>
  <rect class="cls-18" x="1911" y="2047.5" width="136.5" height="136.5"/>
  <rect class="cls-110" x="1774.5" y="2047.5" width="136.5" height="136.5"/>
  <rect class="cls-18" x="1638" y="2047.5" width="136.5" height="136.5"/>
  <rect class="cls-50" x="1501.5" y="2047.5" width="136.5" height="136.5"/>
  <rect class="cls-42" x="1365" y="2047.5" width="136.5" height="136.5"/>
  <rect class="cls-23" x="1228.5" y="2047.5" width="136.5" height="136.5"/>
  <rect class="cls-114" x="1092" y="2047.5" width="136.5" height="136.5"/>
  <rect class="cls-114" x="955.5" y="2047.5" width="136.5" height="136.5"/>
  <rect class="cls-58" x="819" y="2047.5" width="136.5" height="136.5"/>
  <rect class="cls-46" x="682.5" y="2047.5" width="136.5" height="136.5"/>
  <rect class="cls-18" x="546" y="2047.5" width="136.5" height="136.5"/>
  <rect class="cls-18" x="409.5" y="2047.5" width="136.5" height="136.5"/>
  <rect class="cls-94" x="273" y="2047.5" width="136.5" height="136.5"/>
  <rect class="cls-18" x="136.5" y="2047.5" width="136.5" height="136.5"/>
  <rect class="cls-18" y="2047.5" width="136.5" height="136.5"/>
  <rect class="cls-18" x="2593.5" y="1911" width="136.5" height="136.5"/>
  <rect class="cls-18" x="2457" y="1911" width="136.5" height="136.5"/>
  <rect class="cls-101" x="2320.5" y="1911" width="136.5" height="136.5"/>
  <rect class="cls-17" x="2184" y="1911" width="136.5" height="136.5"/>
  <rect class="cls-18" x="2047.5" y="1911" width="136.5" height="136.5"/>
  <rect class="cls-18" x="1911" y="1911" width="136.5" height="136.5"/>
  <rect class="cls-50" x="1774.5" y="1911" width="136.5" height="136.5"/>
  <rect class="cls-66" x="1638" y="1911" width="136.5" height="136.5"/>
  <rect class="cls-75" x="1501.5" y="1911" width="136.5" height="136.5"/>
  <rect class="cls-97" x="1365" y="1911" width="136.5" height="136.5"/>
  <rect class="cls-114" x="1228.5" y="1911" width="136.5" height="136.5"/>
  <rect class="cls-114" x="1092" y="1911" width="136.5" height="136.5"/>
  <rect class="cls-114" x="955.5" y="1911" width="136.5" height="136.5"/>
  <rect class="cls-87" x="819" y="1911" width="136.5" height="136.5"/>
  <rect class="cls-36" x="682.5" y="1911" width="136.5" height="136.5"/>
  <rect class="cls-85" x="546" y="1911" width="136.5" height="136.5"/>
  <rect class="cls-51" x="409.5" y="1911" width="136.5" height="136.5"/>
  <rect class="cls-18" x="273" y="1911" width="136.5" height="136.5"/>
  <rect class="cls-18" x="136.5" y="1911" width="136.5" height="136.5"/>
  <rect class="cls-18" y="1911" width="136.5" height="136.5"/>
  <rect class="cls-18" x="2593.5" y="1774.5" width="136.5" height="136.5"/>
  <rect class="cls-18" x="2457" y="1774.5" width="136.5" height="136.5"/>
  <rect class="cls-18" x="2320.5" y="1774.5" width="136.5" height="136.5"/>
  <rect class="cls-7" x="2184" y="1774.5" width="136.5" height="136.5"/>
  <rect class="cls-84" x="2047.5" y="1774.5" width="136.5" height="136.5"/>
  <rect class="cls-71" x="1911" y="1774.5" width="136.5" height="136.5"/>
  <rect class="cls-2" x="1774.5" y="1774.5" width="136.5" height="136.5"/>
  <rect class="cls-62" x="1638" y="1774.5" width="136.5" height="136.5"/>
  <rect class="cls-114" x="1501.5" y="1774.5" width="136.5" height="136.5"/>
  <rect class="cls-114" x="1365" y="1774.5" width="136.5" height="136.5"/>
  <rect class="cls-114" x="1228.5" y="1774.5" width="136.5" height="136.5"/>
  <rect class="cls-114" x="1092" y="1774.5" width="136.5" height="136.5"/>
  <rect class="cls-11" x="955.5" y="1774.5" width="136.5" height="136.5"/>
  <rect class="cls-70" x="819" y="1774.5" width="136.5" height="136.5"/>
  <rect class="cls-44" x="682.5" y="1774.5" width="136.5" height="136.5"/>
  <rect class="cls-106" x="546" y="1774.5" width="136.5" height="136.5"/>
  <rect class="cls-4" x="409.5" y="1774.5" width="136.5" height="136.5"/>
  <rect class="cls-64" x="273" y="1774.5" width="136.5" height="136.5"/>
  <rect class="cls-18" x="136.5" y="1774.5" width="136.5" height="136.5"/>
  <rect class="cls-18" y="1774.5" width="136.5" height="136.5"/>
  <rect class="cls-18" x="2593.5" y="1638" width="136.5" height="136.5"/>
  <rect class="cls-18" x="2457" y="1638" width="136.5" height="136.5"/>
  <rect class="cls-18" x="2320.5" y="1638" width="136.5" height="136.5"/>
  <rect class="cls-18" x="2184" y="1638" width="136.5" height="136.5"/>
  <rect class="cls-33" x="2047.5" y="1638" width="136.5" height="136.5"/>
  <rect class="cls-38" x="1911" y="1638" width="136.5" height="136.5"/>
  <rect class="cls-93" x="1774.5" y="1638" width="136.5" height="136.5"/>
  <rect class="cls-114" x="1638" y="1638" width="136.5" height="136.5"/>
  <rect class="cls-114" x="1501.5" y="1638" width="136.5" height="136.5"/>
  <rect class="cls-114" x="1365" y="1638" width="136.5" height="136.5"/>
  <rect class="cls-24" x="1228.5" y="1638" width="136.5" height="136.5"/>
  <rect class="cls-81" x="1092" y="1638" width="136.5" height="136.5"/>
  <rect class="cls-50" x="955.5" y="1638" width="136.5" height="136.5"/>
  <rect class="cls-18" x="819" y="1638" width="136.5" height="136.5"/>
  <rect class="cls-50" x="682.5" y="1638" width="136.5" height="136.5"/>
  <rect class="cls-18" x="546" y="1638" width="136.5" height="136.5"/>
  <rect class="cls-107" x="409.5" y="1638" width="136.5" height="136.5"/>
  <rect class="cls-4" x="273" y="1638" width="136.5" height="136.5"/>
  <rect class="cls-18" x="136.5" y="1638" width="136.5" height="136.5"/>
  <rect class="cls-18" y="1638" width="136.5" height="136.5"/>
  <rect class="cls-18" x="2593.5" y="1501.5" width="136.5" height="136.5"/>
  <rect class="cls-18" x="2457" y="1501.5" width="136.5" height="136.5"/>
  <rect class="cls-18" x="2320.5" y="1501.5" width="136.5" height="136.5"/>
  <rect class="cls-77" x="2184" y="1501.5" width="136.5" height="136.5"/>
  <rect class="cls-111" x="2047.5" y="1501.5" width="136.5" height="136.5"/>
  <rect class="cls-67" x="1911" y="1501.5" width="136.5" height="136.5"/>
  <rect class="cls-114" x="1774.5" y="1501.5" width="136.5" height="136.5"/>
  <rect class="cls-114" x="1638" y="1501.5" width="136.5" height="136.5"/>
  <rect class="cls-114" x="1501.5" y="1501.5" width="136.5" height="136.5"/>
  <rect class="cls-52" x="1365" y="1501.5" width="136.5" height="136.5"/>
  <rect class="cls-1" x="1228.5" y="1501.5" width="136.5" height="136.5"/>
  <rect class="cls-3" x="1092" y="1501.5" width="136.5" height="136.5"/>
  <rect class="cls-45" x="955.5" y="1501.5" width="136.5" height="136.5"/>
  <rect class="cls-18" x="819" y="1501.5" width="136.5" height="136.5"/>
  <rect class="cls-39" x="682.5" y="1501.5" width="136.5" height="136.5"/>
  <rect class="cls-18" x="546" y="1501.5" width="136.5" height="136.5"/>
  <rect class="cls-18" x="409.5" y="1501.5" width="136.5" height="136.5"/>
  <rect class="cls-18" x="273" y="1501.5" width="136.5" height="136.5"/>
  <rect class="cls-18" x="136.5" y="1501.5" width="136.5" height="136.5"/>
  <rect class="cls-18" y="1501.5" width="136.5" height="136.5"/>
  <rect class="cls-18" x="2593.5" y="1365" width="136.5" height="136.5"/>
  <rect class="cls-18" x="2457" y="1365" width="136.5" height="136.5"/>
  <rect class="cls-77" x="2320.5" y="1365" width="136.5" height="136.5"/>
  <rect class="cls-14" x="2184" y="1365" width="136.5" height="136.5"/>
  <rect class="cls-27" x="2047.5" y="1365" width="136.5" height="136.5"/>
  <rect class="cls-114" x="1911" y="1365" width="136.5" height="136.5"/>
  <rect class="cls-114" x="1774.5" y="1365" width="136.5" height="136.5"/>
  <rect class="cls-114" x="1638" y="1365" width="136.5" height="136.5"/>
  <rect class="cls-16" x="1501.5" y="1365" width="136.5" height="136.5"/>
  <rect class="cls-18" x="1365" y="1365" width="136.5" height="136.5"/>
  <rect class="cls-109" x="1228.5" y="1365" width="136.5" height="136.5"/>
  <rect class="cls-48" x="1092" y="1365" width="136.5" height="136.5"/>
  <rect class="cls-21" x="955.5" y="1365" width="136.5" height="136.5"/>
  <rect class="cls-50" x="819" y="1365" width="136.5" height="136.5"/>
  <rect class="cls-92" x="682.5" y="1365" width="136.5" height="136.5"/>
  <rect class="cls-18" x="546" y="1365" width="136.5" height="136.5"/>
  <rect class="cls-18" x="409.5" y="1365" width="136.5" height="136.5"/>
  <rect class="cls-18" x="273" y="1365" width="136.5" height="136.5"/>
  <rect class="cls-18" x="136.5" y="1365" width="136.5" height="136.5"/>
  <rect class="cls-18" y="1365" width="136.5" height="136.5"/>
  <rect class="cls-18" x="2593.5" y="1228.5" width="136.5" height="136.5"/>
  <rect class="cls-18" x="2457" y="1228.5" width="136.5" height="136.5"/>
  <rect class="cls-47" x="2320.5" y="1228.5" width="136.5" height="136.5"/>
  <rect class="cls-23" x="2184" y="1228.5" width="136.5" height="136.5"/>
  <rect class="cls-76" x="2047.5" y="1228.5" width="136.5" height="136.5"/>
  <rect class="cls-105" x="1911" y="1228.5" width="136.5" height="136.5"/>
  <rect class="cls-114" x="1774.5" y="1228.5" width="136.5" height="136.5"/>
  <rect class="cls-103" x="1638" y="1228.5" width="136.5" height="136.5"/>
  <rect class="cls-18" x="1501.5" y="1228.5" width="136.5" height="136.5"/>
  <rect class="cls-18" x="1365" y="1228.5" width="136.5" height="136.5"/>
  <rect class="cls-74" x="1228.5" y="1228.5" width="136.5" height="136.5"/>
  <rect class="cls-19" x="1092" y="1228.5" width="136.5" height="136.5"/>
  <rect class="cls-18" x="955.5" y="1228.5" width="136.5" height="136.5"/>
  <rect class="cls-96" x="819" y="1228.5" width="136.5" height="136.5"/>
  <rect class="cls-74" x="682.5" y="1228.5" width="136.5" height="136.5"/>
  <rect class="cls-113" x="546" y="1228.5" width="136.5" height="136.5"/>
  <rect class="cls-18" x="409.5" y="1228.5" width="136.5" height="136.5"/>
  <rect class="cls-18" x="273" y="1228.5" width="136.5" height="136.5"/>
  <rect class="cls-18" x="136.5" y="1228.5" width="136.5" height="136.5"/>
  <rect class="cls-18" y="1228.5" width="136.5" height="136.5"/>
  <rect class="cls-18" x="2593.5" y="1092" width="136.5" height="136.5"/>
  <rect class="cls-108" x="2457" y="1092" width="136.5" height="136.5"/>
  <rect class="cls-43" x="2320.5" y="1092" width="136.5" height="136.5"/>
  <rect class="cls-114" x="2184" y="1092" width="136.5" height="136.5"/>
  <rect class="cls-102" x="2047.5" y="1092" width="136.5" height="136.5"/>
  <rect class="cls-56" x="1911" y="1092" width="136.5" height="136.5"/>
  <rect class="cls-80" x="1774.5" y="1092" width="136.5" height="136.5"/>
  <rect class="cls-110" x="1638" y="1092" width="136.5" height="136.5"/>
  <rect class="cls-18" x="1501.5" y="1092" width="136.5" height="136.5"/>
  <rect class="cls-18" x="1365" y="1092" width="136.5" height="136.5"/>
  <rect class="cls-31" x="1228.5" y="1092" width="136.5" height="136.5"/>
  <rect class="cls-18" x="1092" y="1092" width="136.5" height="136.5"/>
  <rect class="cls-18" x="955.5" y="1092" width="136.5" height="136.5"/>
  <rect class="cls-18" x="819" y="1092" width="136.5" height="136.5"/>
  <rect class="cls-53" x="682.5" y="1092" width="136.5" height="136.5"/>
  <rect class="cls-22" x="546" y="1092" width="136.5" height="136.5"/>
  <rect class="cls-98" x="409.5" y="1092" width="136.5" height="136.5"/>
  <rect class="cls-9" x="273" y="1092" width="136.5" height="136.5"/>
  <rect class="cls-18" x="136.5" y="1092" width="136.5" height="136.5"/>
  <rect class="cls-18" y="1092" width="136.5" height="136.5"/>
  <rect class="cls-18" x="2593.5" y="955.5" width="136.5" height="136.5"/>
  <rect class="cls-25" x="2457" y="955.5" width="136.5" height="136.5"/>
  <rect class="cls-114" x="2320.5" y="955.5" width="136.5" height="136.5"/>
  <rect class="cls-114" x="2184" y="955.5" width="136.5" height="136.5"/>
  <rect class="cls-114" x="2047.5" y="955.5" width="136.5" height="136.5"/>
  <rect class="cls-55" x="1911" y="955.5" width="136.5" height="136.5"/>
  <rect class="cls-29" x="1774.5" y="955.5" width="136.5" height="136.5"/>
  <rect class="cls-72" x="1638" y="955.5" width="136.5" height="136.5"/>
  <rect class="cls-6" x="1501.5" y="955.5" width="136.5" height="136.5"/>
  <rect class="cls-115" x="1365" y="955.5" width="136.5" height="136.5"/>
  <rect class="cls-54" x="1228.5" y="955.5" width="136.5" height="136.5"/>
  <rect class="cls-50" x="1092" y="955.5" width="136.5" height="136.5"/>
  <rect class="cls-50" x="955.5" y="955.5" width="136.5" height="136.5"/>
  <rect class="cls-18" x="819" y="955.5" width="136.5" height="136.5"/>
  <rect class="cls-18" x="682.5" y="955.5" width="136.5" height="136.5"/>
  <rect class="cls-74" x="546" y="955.5" width="136.5" height="136.5"/>
  <rect class="cls-28" x="409.5" y="955.5" width="136.5" height="136.5"/>
  <rect class="cls-88" x="273" y="955.5" width="136.5" height="136.5"/>
  <rect class="cls-18" x="136.5" y="955.5" width="136.5" height="136.5"/>
  <rect class="cls-18" y="955.5" width="136.5" height="136.5"/>
  <rect class="cls-18" x="2593.5" y="819" width="136.5" height="136.5"/>
  <rect class="cls-18" x="2457" y="819" width="136.5" height="136.5"/>
  <rect class="cls-12" x="2320.5" y="819" width="136.5" height="136.5"/>
  <rect class="cls-95" x="2184" y="819" width="136.5" height="136.5"/>
  <rect class="cls-82" x="2047.5" y="819" width="136.5" height="136.5"/>
  <rect class="cls-29" x="1911" y="819" width="136.5" height="136.5"/>
  <rect class="cls-99" x="1774.5" y="819" width="136.5" height="136.5"/>
  <rect class="cls-10" x="1638" y="819" width="136.5" height="136.5"/>
  <rect class="cls-34" x="1501.5" y="819" width="136.5" height="136.5"/>
  <rect class="cls-90" x="1365" y="819" width="136.5" height="136.5"/>
  <rect class="cls-29" x="1228.5" y="819" width="136.5" height="136.5"/>
  <rect class="cls-29" x="1092" y="819" width="136.5" height="136.5"/>
  <rect class="cls-29" x="955.5" y="819" width="136.5" height="136.5"/>
  <rect class="cls-29" x="819" y="819" width="136.5" height="136.5"/>
  <rect class="cls-104" x="682.5" y="819" width="136.5" height="136.5"/>
  <rect class="cls-100" x="546" y="819" width="136.5" height="136.5"/>
  <rect class="cls-50" x="409.5" y="819" width="136.5" height="136.5"/>
  <rect class="cls-18" x="273" y="819" width="136.5" height="136.5"/>
  <rect class="cls-18" x="136.5" y="819" width="136.5" height="136.5"/>
  <rect class="cls-18" y="819" width="136.5" height="136.5"/>
  <rect class="cls-18" x="2593.5" y="682.5" width="136.5" height="136.5"/>
  <rect class="cls-18" x="2457" y="682.5" width="136.5" height="136.5"/>
  <rect class="cls-18" x="2320.5" y="682.5" width="136.5" height="136.5"/>
  <rect class="cls-18" x="2184" y="682.5" width="136.5" height="136.5"/>
  <rect class="cls-83" x="2047.5" y="682.5" width="136.5" height="136.5"/>
  <rect class="cls-50" x="1911" y="682.5" width="136.5" height="136.5"/>
  <rect class="cls-30" x="1774.5" y="682.5" width="136.5" height="136.5"/>
  <rect class="cls-18" x="1638" y="682.5" width="136.5" height="136.5"/>
  <rect class="cls-18" x="1501.5" y="682.5" width="136.5" height="136.5"/>
  <rect class="cls-112" x="1365" y="682.5" width="136.5" height="136.5"/>
  <rect class="cls-18" x="1228.5" y="682.5" width="136.5" height="136.5"/>
  <rect class="cls-26" x="1092" y="682.5" width="136.5" height="136.5"/>
  <rect class="cls-40" x="955.5" y="682.5" width="136.5" height="136.5"/>
  <rect class="cls-18" x="819" y="682.5" width="136.5" height="136.5"/>
  <rect class="cls-18" x="682.5" y="682.5" width="136.5" height="136.5"/>
  <rect class="cls-18" x="546" y="682.5" width="136.5" height="136.5"/>
  <rect class="cls-63" x="409.5" y="682.5" width="136.5" height="136.5"/>
  <rect class="cls-18" x="273" y="682.5" width="136.5" height="136.5"/>
  <rect class="cls-18" x="136.5" y="682.5" width="136.5" height="136.5"/>
  <rect class="cls-18" y="682.5" width="136.5" height="136.5"/>
  <rect class="cls-18" x="2593.5" y="546" width="136.5" height="136.5"/>
  <rect class="cls-18" x="2457" y="546" width="136.5" height="136.5"/>
  <rect class="cls-18" x="2320.5" y="546" width="136.5" height="136.5"/>
  <rect class="cls-18" x="2184" y="546" width="136.5" height="136.5"/>
  <rect class="cls-18" x="2047.5" y="546" width="136.5" height="136.5"/>
  <rect class="cls-41" x="1911" y="546" width="136.5" height="136.5"/>
  <rect class="cls-35" x="1774.5" y="546" width="136.5" height="136.5"/>
  <rect class="cls-51" x="1638" y="546" width="136.5" height="136.5"/>
  <rect class="cls-5" x="1501.5" y="546" width="136.5" height="136.5"/>
  <rect class="cls-18" x="1365" y="546" width="136.5" height="136.5"/>
  <rect class="cls-18" x="1228.5" y="546" width="136.5" height="136.5"/>
  <rect class="cls-18" x="1092" y="546" width="136.5" height="136.5"/>
  <rect class="cls-18" x="955.5" y="546" width="136.5" height="136.5"/>
  <rect class="cls-18" x="819" y="546" width="136.5" height="136.5"/>
  <rect class="cls-18" x="682.5" y="546" width="136.5" height="136.5"/>
  <rect class="cls-18" x="546" y="546" width="136.5" height="136.5"/>
  <rect class="cls-18" x="409.5" y="546" width="136.5" height="136.5"/>
  <rect class="cls-18" x="273" y="546" width="136.5" height="136.5"/>
  <rect class="cls-18" x="136.5" y="546" width="136.5" height="136.5"/>
  <rect class="cls-18" y="546" width="136.5" height="136.5"/>
  <rect class="cls-18" x="2593.5" y="409.5" width="136.5" height="136.5"/>
  <rect class="cls-18" x="2457" y="409.5" width="136.5" height="136.5"/>
  <rect class="cls-18" x="2320.5" y="409.5" width="136.5" height="136.5"/>
  <rect class="cls-18" x="2184" y="409.5" width="136.5" height="136.5"/>
  <rect class="cls-18" x="2047.5" y="409.5" width="136.5" height="136.5"/>
  <rect class="cls-18" x="1911" y="409.5" width="136.5" height="136.5"/>
  <rect class="cls-73" x="1774.5" y="409.5" width="136.5" height="136.5"/>
  <rect class="cls-26" x="1638" y="409.5" width="136.5" height="136.5"/>
  <rect class="cls-18" x="1501.5" y="409.5" width="136.5" height="136.5"/>
  <rect class="cls-18" x="1365" y="409.5" width="136.5" height="136.5"/>
  <rect class="cls-18" x="1228.5" y="409.5" width="136.5" height="136.5"/>
  <rect class="cls-18" x="1092" y="409.5" width="136.5" height="136.5"/>
  <rect class="cls-18" x="955.5" y="409.5" width="136.5" height="136.5"/>
  <rect class="cls-18" x="819" y="409.5" width="136.5" height="136.5"/>
  <rect class="cls-18" x="682.5" y="409.5" width="136.5" height="136.5"/>
  <rect class="cls-18" x="546" y="409.5" width="136.5" height="136.5"/>
  <rect class="cls-18" x="409.5" y="409.5" width="136.5" height="136.5"/>
  <rect class="cls-18" x="273" y="409.5" width="136.5" height="136.5"/>
  <rect class="cls-18" x="136.5" y="409.5" width="136.5" height="136.5"/>
  <rect class="cls-18" y="409.5" width="136.5" height="136.5"/>
  <rect class="cls-18" x="2593.5" y="273" width="136.5" height="136.5"/>
  <rect class="cls-18" x="2457" y="273" width="136.5" height="136.5"/>
  <rect class="cls-18" x="2320.5" y="273" width="136.5" height="136.5"/>
  <rect class="cls-18" x="2184" y="273" width="136.5" height="136.5"/>
  <rect class="cls-18" x="2047.5" y="273" width="136.5" height="136.5"/>
  <rect class="cls-18" x="1911" y="273" width="136.5" height="136.5"/>
  <rect class="cls-18" x="1774.5" y="273" width="136.5" height="136.5"/>
  <rect class="cls-18" x="1638" y="273" width="136.5" height="136.5"/>
  <rect class="cls-18" x="1501.5" y="273" width="136.5" height="136.5"/>
  <rect class="cls-18" x="1365" y="273" width="136.5" height="136.5"/>
  <rect class="cls-18" x="1228.5" y="273" width="136.5" height="136.5"/>
  <rect class="cls-18" x="1092" y="273" width="136.5" height="136.5"/>
  <rect class="cls-18" x="955.5" y="273" width="136.5" height="136.5"/>
  <rect class="cls-18" x="819" y="273" width="136.5" height="136.5"/>
  <rect class="cls-18" x="682.5" y="273" width="136.5" height="136.5"/>
  <rect class="cls-18" x="546" y="273" width="136.5" height="136.5"/>
  <rect class="cls-18" x="409.5" y="273" width="136.5" height="136.5"/>
  <rect class="cls-18" x="273" y="273" width="136.5" height="136.5"/>
  <rect class="cls-18" x="136.5" y="273" width="136.5" height="136.5"/>
  <rect class="cls-18" y="273" width="136.5" height="136.5"/>
  <rect class="cls-18" x="2593.5" y="136.5" width="136.5" height="136.5"/>
  <rect class="cls-18" x="2457" y="136.5" width="136.5" height="136.5"/>
  <rect class="cls-18" x="2320.5" y="136.5" width="136.5" height="136.5"/>
  <rect class="cls-18" x="2184" y="136.5" width="136.5" height="136.5"/>
  <rect class="cls-18" x="2047.5" y="136.5" width="136.5" height="136.5"/>
  <rect class="cls-18" x="1911" y="136.5" width="136.5" height="136.5"/>
  <rect class="cls-18" x="1774.5" y="136.5" width="136.5" height="136.5"/>
  <rect class="cls-18" x="1638" y="136.5" width="136.5" height="136.5"/>
  <rect class="cls-18" x="1501.5" y="136.5" width="136.5" height="136.5"/>
  <rect class="cls-18" x="1365" y="136.5" width="136.5" height="136.5"/>
  <rect class="cls-18" x="1228.5" y="136.5" width="136.5" height="136.5"/>
  <rect class="cls-18" x="1092" y="136.5" width="136.5" height="136.5"/>
  <rect class="cls-18" x="955.5" y="136.5" width="136.5" height="136.5"/>
  <rect class="cls-18" x="819" y="136.5" width="136.5" height="136.5"/>
  <rect class="cls-18" x="682.5" y="136.5" width="136.5" height="136.5"/>
  <rect class="cls-18" x="546" y="136.5" width="136.5" height="136.5"/>
  <rect class="cls-18" x="409.5" y="136.5" width="136.5" height="136.5"/>
  <rect class="cls-18" x="273" y="136.5" width="136.5" height="136.5"/>
  <rect class="cls-18" x="136.5" y="136.5" width="136.5" height="136.5"/>
  <rect class="cls-18" y="136.5" width="136.5" height="136.5"/>
  <rect class="cls-18" x="2593.5" width="136.5" height="136.5"/>
  <rect class="cls-18" x="2457" width="136.5" height="136.5"/>
  <rect class="cls-18" x="2320.5" width="136.5" height="136.5"/>
  <rect class="cls-18" x="2184" width="136.5" height="136.5"/>
  <rect class="cls-18" x="2047.5" width="136.5" height="136.5"/>
  <rect class="cls-18" x="1911" width="136.5" height="136.5"/>
  <rect class="cls-18" x="1774.5" width="136.5" height="136.5"/>
  <rect class="cls-18" x="1638" width="136.5" height="136.5"/>
  <rect class="cls-18" x="1501.5" width="136.5" height="136.5"/>
  <rect class="cls-18" x="1365" width="136.5" height="136.5"/>
  <rect class="cls-18" x="1228.5" width="136.5" height="136.5"/>
  <rect class="cls-18" x="1092" width="136.5" height="136.5"/>
  <rect class="cls-18" x="955.5" width="136.5" height="136.5"/>
  <rect class="cls-18" x="819" width="136.5" height="136.5"/>
  <rect class="cls-18" x="682.5" width="136.5" height="136.5"/>
  <rect class="cls-18" x="546" width="136.5" height="136.5"/>
  <rect class="cls-18" x="409.5" width="136.5" height="136.5"/>
  <rect class="cls-18" x="273" width="136.5" height="136.5"/>
  <rect class="cls-18" x="136.5" width="136.5" height="136.5"/>
  <rect class="cls-18" width="136.5" height="136.5"/>
</svg>