<?xml version="1.0" encoding="UTF-8"?>
<svg id="Layer_1" data-name="Layer 1" xmlns="http://www.w3.org/2000/svg" viewBox="0 0 1200 1227">
  <defs>
    <style>
      .cls-1 {
        fill: #d7ffb2;
      }

      .cls-2 {
        fill: #7dff01;
      }

      .cls-3 {
        fill: #87ff16;
      }

      .cls-4 {
        fill: #00000000;
      }

      .cls-5 {
        fill: #7cff00;
      }

      .cls-6 {
        fill: #7dff02;
      }

      .cls-7 {
        fill: #91ff27;
      }

      .cls-8 {
        fill: #00000000;
      }
    </style>
  </defs>
  <rect class="cls-5" x="1080" y="1104.3" width="120" height="122.7"/>
  <rect class="cls-5" x="960" y="1104.3" width="120" height="122.7"/>
  <rect class="cls-5" x="840" y="1104.3" width="120" height="122.7"/>
  <rect class="cls-4" x="720" y="1104.3" width="120" height="122.7"/>
  <rect class="cls-4" x="600" y="1104.3" width="120" height="122.7"/>
  <rect class="cls-4" x="480" y="1104.3" width="120" height="122.7"/>
  <rect class="cls-4" x="360" y="1104.3" width="120" height="122.7"/>
  <rect class="cls-4" x="240" y="1104.3" width="120" height="122.7"/>
  <rect class="cls-4" x="120" y="1104.3" width="120" height="122.7"/>
  <rect class="cls-6" y="1104.3" width="120" height="122.7"/>
  <rect class="cls-4" x="1080" y="981.6" width="120" height="122.7"/>
  <rect class="cls-5" x="960" y="981.6" width="120" height="122.7"/>
  <rect class="cls-4" x="840" y="981.6" width="120" height="122.7"/>
  <rect class="cls-5" x="720" y="981.6" width="120" height="122.7"/>
  <rect class="cls-4" x="600" y="981.6" width="120" height="122.7"/>
  <rect class="cls-4" x="480" y="981.6" width="120" height="122.7"/>
  <rect class="cls-4" x="360" y="981.6" width="120" height="122.7"/>
  <rect class="cls-4" x="240" y="981.6" width="120" height="122.7"/>
  <rect class="cls-5" x="120" y="981.6" width="120" height="122.7"/>
  <rect class="cls-4" y="981.6" width="120" height="122.7"/>
  <rect class="cls-4" x="1080" y="858.9" width="120" height="122.7"/>
  <rect class="cls-4" x="960" y="858.9" width="120" height="122.7"/>
  <rect class="cls-5" x="840" y="858.9" width="120" height="122.7"/>
  <rect class="cls-4" x="720" y="858.9" width="120" height="122.7"/>
  <rect class="cls-5" x="600" y="858.9" width="120" height="122.7"/>
  <rect class="cls-4" x="480" y="858.9" width="120" height="122.7"/>
  <rect class="cls-4" x="360" y="858.9" width="120" height="122.7"/>
  <rect class="cls-5" x="240" y="858.9" width="120" height="122.7"/>
  <rect class="cls-4" x="120" y="858.9" width="120" height="122.7"/>
  <rect class="cls-4" y="858.9" width="120" height="122.7"/>
  <rect class="cls-4" x="1080" y="736.2" width="120" height="122.7"/>
  <rect class="cls-4" x="960" y="736.2" width="120" height="122.7"/>
  <rect class="cls-3" x="840" y="736.2" width="120" height="122.7"/>
  <rect class="cls-4" x="720" y="736.2" width="120" height="122.7"/>
  <rect class="cls-4" x="600" y="736.2" width="120" height="122.7"/>
  <rect class="cls-4" x="480" y="736.2" width="120" height="122.7"/>
  <rect class="cls-5" x="360" y="736.2" width="120" height="122.7"/>
  <rect class="cls-4" x="240" y="736.2" width="120" height="122.7"/>
  <rect class="cls-4" x="120" y="736.2" width="120" height="122.7"/>
  <rect class="cls-4" y="736.2" width="120" height="122.7"/>
  <rect class="cls-4" x="1080" y="613.5" width="120" height="122.7"/>
  <rect class="cls-4" x="960" y="613.5" width="120" height="122.7"/>
  <rect class="cls-4" x="840" y="613.5" width="120" height="122.7"/>
  <rect class="cls-5" x="720" y="613.5" width="120" height="122.7"/>
  <rect class="cls-4" x="600" y="613.5" width="120" height="122.7"/>
  <rect class="cls-5" x="480" y="613.5" width="120" height="122.7"/>
  <rect class="cls-4" x="360" y="613.5" width="120" height="122.7"/>
  <rect class="cls-4" x="240" y="613.5" width="120" height="122.7"/>
  <rect class="cls-4" x="120" y="613.5" width="120" height="122.7"/>
  <rect class="cls-4" y="613.5" width="120" height="122.7"/>
  <rect class="cls-4" x="1080" y="490.8" width="120" height="122.7"/>
  <rect class="cls-4" x="960" y="490.8" width="120" height="122.7"/>
  <rect class="cls-4" x="840" y="490.8" width="120" height="122.7"/>
  <rect class="cls-4" x="720" y="490.8" width="120" height="122.7"/>
  <rect class="cls-5" x="600" y="490.8" width="120" height="122.7"/>
  <rect class="cls-4" x="480" y="490.8" width="120" height="122.7"/>
  <rect class="cls-5" x="360" y="490.8" width="120" height="122.7"/>
  <rect class="cls-4" x="240" y="490.8" width="120" height="122.7"/>
  <rect class="cls-4" x="120" y="490.8" width="120" height="122.7"/>
  <rect class="cls-4" y="490.8" width="120" height="122.7"/>
  <rect class="cls-4" x="1080" y="368.1" width="120" height="122.7"/>
  <rect class="cls-4" x="960" y="368.1" width="120" height="122.7"/>
  <rect class="cls-4" x="840" y="368.1" width="120" height="122.7"/>
  <rect class="cls-5" x="720" y="368.1" width="120" height="122.7"/>
  <rect class="cls-4" x="600" y="368.1" width="120" height="122.7"/>
  <rect class="cls-4" x="480" y="368.1" width="120" height="122.7"/>
  <rect class="cls-4" x="360" y="368.1" width="120" height="122.7"/>
  <rect class="cls-2" x="240" y="368.1" width="120" height="122.7"/>
  <rect class="cls-4" x="120" y="368.1" width="120" height="122.7"/>
  <rect class="cls-4" y="368.1" width="120" height="122.7"/>
  <rect class="cls-4" x="1080" y="245.4" width="120" height="122.7"/>
  <rect class="cls-4" x="960" y="245.4" width="120" height="122.7"/>
  <rect class="cls-8" x="840" y="245.4" width="120" height="122.7"/>
  <rect class="cls-4" x="720" y="245.4" width="120" height="122.7"/>
  <rect class="cls-4" x="600" y="245.4" width="120" height="122.7"/>
  <rect class="cls-5" x="480" y="245.4" width="120" height="122.7"/>
  <rect class="cls-4" x="360" y="245.4" width="120" height="122.7"/>
  <rect class="cls-7" x="240" y="245.4" width="120" height="122.7"/>
  <rect class="cls-4" x="120" y="245.4" width="120" height="122.7"/>
  <rect class="cls-4" y="245.4" width="120" height="122.7"/>
  <rect class="cls-4" x="1080" y="122.7" width="120" height="122.7"/>
  <rect class="cls-4" x="960" y="122.7" width="120" height="122.7"/>
  <rect class="cls-1" x="840" y="122.7" width="120" height="122.7"/>
  <rect class="cls-4" x="720" y="122.7" width="120" height="122.7"/>
  <rect class="cls-4" x="600" y="122.7" width="120" height="122.7"/>
  <rect class="cls-4" x="480" y="122.7" width="120" height="122.7"/>
  <rect class="cls-5" x="360" y="122.7" width="120" height="122.7"/>
  <rect class="cls-4" x="240" y="122.7" width="120" height="122.7"/>
  <rect class="cls-5" x="120" y="122.7" width="120" height="122.7"/>
  <rect class="cls-4" y="122.7" width="120" height="122.7"/>
  <rect class="cls-4" x="1080" width="120" height="122.7"/>
  <rect class="cls-5" x="960" width="120" height="122.7"/>
  <rect class="cls-4" x="840" width="120" height="122.7"/>
  <rect class="cls-4" x="720" width="120" height="122.7"/>
  <rect class="cls-4" x="600" width="120" height="122.7"/>
  <rect class="cls-4" x="480" width="120" height="122.7"/>
  <rect class="cls-4" x="360" width="120" height="122.7"/>
  <rect class="cls-5" x="240" width="120" height="122.7"/>
  <rect class="cls-5" x="120" width="120" height="122.7"/>
  <rect class="cls-5" width="120" height="122.7"/>
</svg>